<?xml version="1.0" standalone="no"?>
<!DOCTYPE svg PUBLIC "-//W3C//DTD SVG 20010904//EN"
 "http://www.w3.org/TR/2001/REC-SVG-20010904/DTD/svg10.dtd">
<svg version="1.0" xmlns="http://www.w3.org/2000/svg"
 width="932.000000pt" height="932.000000pt" viewBox="0 0 932.000000 932.000000"
 preserveAspectRatio="xMidYMid meet">
<metadata>
Created by potrace 1.11, written by Peter Selinger 2001-2013
</metadata>
<g transform="translate(0.000000,932.000000) scale(0.100000,-0.100000)"
fill="#000000" stroke="none">
<path d="M640 8191 c-150 -54 -237 -168 -247 -322 -9 -123 29 -222 113 -299
50 -45 76 -59 148 -81 103 -31 257 -7 327 51 72 60 87 79 120 149 73 153 20
358 -116 453 -92 65 -243 86 -345 49z m207 -109 c83 -34 138 -102 150 -186 9
-64 8 -73 -1 -116 -26 -113 -108 -180 -225 -184 -94 -3 -169 39 -218 122 -23
38 -27 57 -27 126 0 65 4 90 22 124 59 114 183 161 299 114z"/>
<path d="M1233 8197 c-6 -10 -6 -455 1 -485 21 -94 70 -165 138 -199 68 -35
161 -46 233 -30 22 5 45 10 50 11 19 4 70 35 97 59 42 37 78 117 84 188 2 34
7 65 9 69 2 3 0 12 -4 18 -4 7 -5 33 -1 58 4 24 3 47 -2 50 -4 3 -4 13 1 23 5
9 6 23 2 29 -4 7 -5 33 -1 57 4 24 3 50 -2 59 -5 8 -4 17 1 21 6 3 7 13 4 21
-3 9 -6 25 -7 37 -1 20 -7 22 -61 22 l-60 0 -2 -205 c-2 -247 -6 -292 -32
-333 -52 -84 -193 -100 -271 -30 -50 44 -59 90 -59 315 0 112 0 214 -1 228 0
24 -3 25 -56 25 -31 0 -58 -3 -61 -8z"/>
<path d="M1965 8200 c-1 -3 -3 -16 -3 -30 0 -14 -1 -29 -2 -35 -1 -5 -2 -154
-1 -330 l1 -320 58 1 c31 1 60 2 64 3 3 0 6 45 6 99 0 53 1 108 1 122 1 27 -7
26 142 21 8 -1 40 -36 69 -78 30 -43 60 -84 67 -91 7 -7 13 -16 13 -20 1 -4
10 -18 21 -31 17 -21 30 -25 85 -26 36 -1 67 1 69 5 4 6 -31 63 -57 95 -24 29
-119 167 -116 169 2 1 17 8 33 16 50 25 105 76 105 97 0 7 4 13 8 13 9 0 9 0
16 78 6 69 -16 132 -62 177 -20 19 -40 35 -44 35 -3 0 -19 5 -35 11 -15 7 -37
14 -48 16 -32 6 -386 9 -390 3z m396 -129 c34 -17 53 -48 55 -96 5 -105 -61
-133 -301 -126 l-30 1 2 82 c1 46 2 100 2 121 l1 37 123 -3 c70 -2 133 -9 148
-16z"/>
<path d="M2909 8165 c-1 -68 -1 -649 0 -663 1 -9 18 -12 62 -10 l61 3 0 248
c0 136 1 247 3 247 3 0 53 -62 102 -126 12 -16 74 -95 137 -176 62 -81 123
-159 133 -174 17 -23 27 -26 68 -26 26 1 49 3 51 5 3 3 7 493 5 657 l-1 56
-54 -1 c-30 0 -58 -3 -61 -7 -4 -4 -7 -113 -7 -242 -1 -130 -4 -236 -7 -236
-4 0 -13 11 -21 24 -8 13 -29 41 -46 62 -41 50 -153 194 -179 230 -11 15 -45
59 -76 98 l-57 71 -56 0 -56 1 -1 -41z"/>
<path d="M3665 7845 l0 -360 268 0 c215 -1 267 2 263 12 -3 7 -1 13 4 13 6 0
6 9 1 23 -5 14 -5 30 0 40 12 21 27 20 -211 21 l-195 2 0 94 0 95 173 1 c95 1
176 5 179 8 3 3 6 27 6 53 0 57 18 52 -209 52 l-152 1 0 94 -1 94 137 1 c75 0
167 0 203 1 l65 0 0 58 -1 57 -265 0 -266 0 1 -360z"/>
<path d="M4389 8205 c-4 -3 -34 -6 -68 -6 l-61 -1 17 -30 c10 -16 25 -37 33
-46 30 -34 190 -263 190 -273 0 -12 -28 -56 -52 -83 -10 -11 -20 -28 -24 -38
-3 -10 -8 -18 -12 -18 -4 0 -18 -18 -32 -40 -14 -22 -28 -40 -32 -40 -5 0 -8
-5 -8 -11 0 -6 -13 -28 -28 -48 -16 -20 -36 -47 -45 -61 l-17 -26 71 1 70 0
70 98 c38 54 69 102 69 108 0 5 4 9 8 9 5 0 14 11 20 25 6 14 15 25 19 25 8 0
104 -133 112 -155 2 -5 7 -12 11 -15 3 -3 21 -26 38 -52 l32 -47 75 0 75 0
-47 67 c-149 210 -183 258 -191 267 -22 26 -14 45 59 150 43 60 82 115 86 120
5 6 24 32 42 59 26 37 31 50 20 56 -7 5 -18 6 -23 3 -5 -4 -32 -5 -58 -4 -45
2 -49 0 -66 -29 -9 -17 -27 -43 -38 -57 -12 -14 -44 -58 -70 -99 -41 -60 -51
-70 -58 -56 -5 9 -14 22 -20 28 -6 6 -38 51 -71 99 -79 115 -89 127 -96 120z"/>
<path d="M4990 8199 c-30 -3 -51 -6 -46 -7 5 -1 3 -8 -3 -15 -6 -8 -8 -17 -5
-20 3 -3 6 -21 6 -40 l0 -34 104 2 c57 0 108 -1 113 -4 5 -4 8 -137 7 -298 -1
-327 -8 -300 78 -298 l48 1 0 284 c-1 157 1 292 3 300 4 13 25 15 114 14 l109
0 4 28 c3 15 2 28 -2 28 -3 0 -5 13 -4 29 2 27 -1 29 -40 33 -22 2 -58 1 -79
-3 -20 -3 -40 -3 -43 2 -2 4 -10 6 -18 3 -18 -7 -146 -10 -146 -4 0 3 -27 3
-60 0 -33 -3 -66 -3 -73 0 -6 3 -37 3 -67 -1z"/>
<path d="M272 6620 l0 -668 1447 0 c795 0 1450 -1 1454 -1 7 -1 -74 -163 -144
-288 -23 -41 -75 -136 -129 -238 -24 -44 -55 -102 -70 -130 -15 -27 -44 -81
-65 -120 -46 -86 -92 -171 -135 -250 -18 -33 -55 -103 -83 -155 -28 -52 -55
-98 -61 -102 -6 -4 -7 -8 -3 -8 5 0 0 -15 -11 -32 -24 -40 -67 -119 -118 -218
-21 -41 -41 -77 -44 -80 -3 -3 -21 -36 -42 -75 -20 -38 -49 -92 -63 -120 -15
-27 -42 -77 -59 -110 -17 -33 -33 -62 -36 -65 -3 -3 -18 -30 -33 -60 -76 -148
-122 -235 -127 -240 -3 -3 -21 -34 -39 -70 -39 -73 -76 -143 -113 -210 -14
-25 -44 -81 -68 -125 -24 -44 -47 -86 -53 -92 -5 -7 -6 -13 -1 -13 5 0 4 -4
-1 -8 -6 -4 -23 -32 -39 -62 -16 -30 -41 -77 -56 -105 -15 -27 -47 -86 -70
-130 -24 -44 -52 -96 -63 -115 -18 -32 -87 -163 -149 -280 -12 -25 -25 -47
-28 -50 -3 -3 -12 -18 -20 -35 -8 -16 -33 -64 -56 -105 -22 -41 -65 -120 -94
-175 -59 -111 -104 -195 -145 -270 -16 -27 -44 -79 -63 -115 -72 -136 -117
-219 -180 -335 -81 -150 -131 -244 -169 -316 -17 -31 -37 -67 -46 -80 -9 -12
-14 -26 -11 -30 2 -4 0 -10 -6 -14 -22 -14 -8 -23 22 -15 18 5 49 12 68 15 19
3 58 10 85 15 28 5 61 12 75 14 14 3 25 5 25 6 0 1 12 3 28 5 15 2 51 9 80 15
28 5 66 12 82 14 17 3 64 12 105 21 41 9 89 18 105 19 17 2 41 6 55 10 14 3
39 8 55 11 17 3 55 10 85 16 58 11 90 17 130 23 14 3 25 5 25 6 0 2 20 6 65
14 19 3 60 10 90 16 56 11 85 16 143 25 17 3 41 8 52 12 11 3 31 7 45 9 14 1
99 17 190 34 91 18 170 33 176 34 20 3 38 29 88 126 27 52 61 118 76 145 39
71 153 285 168 315 7 14 25 48 40 75 15 28 56 104 91 170 35 66 72 134 81 150
9 17 36 68 60 115 24 47 47 87 50 90 3 3 34 61 69 130 35 69 73 137 83 153 11
15 16 27 12 27 -3 0 -2 6 4 13 10 11 34 56 122 222 20 39 61 115 90 170 30 55
65 123 79 150 15 28 28 52 31 55 3 3 18 30 34 60 41 80 90 171 151 285 29 55
66 126 81 158 16 31 32 57 36 57 4 0 8 9 8 19 0 11 3 21 8 23 4 2 15 19 24 38
10 19 38 73 63 120 80 148 99 185 97 193 -1 4 3 7 8 7 6 0 10 5 10 10 0 6 11
28 25 50 14 22 25 46 25 55 0 8 3 15 8 15 4 0 12 10 18 23 22 47 119 232 124
237 5 5 32 56 109 205 14 28 29 52 33 53 5 2 8 12 8 22 0 10 3 20 8 22 4 2 21
30 38 63 17 34 45 85 61 115 16 30 53 98 80 150 28 52 68 127 88 165 21 39 59
111 85 160 27 50 66 124 89 165 22 41 55 104 73 140 18 36 35 67 38 70 3 3 19
32 35 65 17 33 32 62 35 65 3 3 28 50 57 105 28 55 63 120 77 145 13 25 35 65
47 90 12 25 33 62 46 83 13 20 21 37 17 37 -3 0 3 12 13 28 11 15 34 56 53 92
19 36 47 88 62 115 15 28 32 59 37 70 5 11 27 52 49 92 22 39 37 74 34 77 -3
3 0 6 6 6 7 0 12 4 12 8 0 5 20 46 45 92 25 46 45 84 45 86 0 1 -1178 2 -2619
2 l-2619 0 0 -668z"/>
<path d="M5792 7277 c-5 -7 -29 -50 -53 -97 -24 -47 -46 -87 -49 -90 -3 -3
-16 -27 -29 -55 -14 -27 -27 -52 -30 -55 -3 -3 -18 -30 -34 -60 -15 -30 -48
-93 -73 -140 -25 -47 -69 -130 -98 -185 -30 -55 -69 -129 -89 -165 -19 -36
-51 -95 -71 -133 -19 -37 -52 -97 -72 -135 -20 -37 -63 -119 -97 -182 -33 -63
-76 -142 -94 -175 -18 -33 -46 -85 -61 -115 -14 -30 -29 -57 -32 -60 -3 -3
-25 -43 -49 -90 -24 -47 -56 -107 -71 -135 -35 -64 -85 -157 -145 -270 -27
-49 -63 -118 -82 -152 -18 -35 -49 -93 -69 -130 -20 -38 -38 -79 -40 -93 -2
-14 -9 -45 -14 -70 -5 -25 -12 -56 -14 -70 -5 -25 -20 -102 -31 -150 -3 -14
-7 -36 -10 -50 -2 -14 -9 -47 -15 -75 -6 -27 -13 -63 -16 -80 -3 -16 -12 -59
-20 -95 -8 -36 -17 -81 -20 -100 -3 -19 -7 -43 -10 -52 -5 -16 -9 -38 -19 -88
-11 -59 -34 -171 -50 -245 -9 -44 -18 -89 -20 -100 -2 -11 -13 -65 -24 -120
-12 -55 -23 -109 -25 -120 -9 -50 -18 -93 -27 -133 -5 -24 -7 -46 -5 -50 2 -4
56 -7 118 -7 l114 1 64 55 c84 70 165 129 178 129 6 0 12 4 14 8 16 39 443
236 553 255 11 2 38 9 60 15 22 6 56 13 75 16 19 3 46 7 60 10 94 21 330 28
433 14 146 -20 149 -20 261 -53 339 -98 630 -314 833 -616 57 -85 143 -250
163 -314 7 -22 15 -44 19 -50 3 -5 6 -14 8 -20 1 -5 9 -35 18 -65 9 -30 18
-68 21 -85 3 -16 10 -46 15 -66 8 -32 17 -105 22 -172 1 -20 17 -19 150 8 15
3 37 7 50 9 12 2 74 14 137 26 63 12 126 24 140 26 14 3 48 9 76 15 28 5 64
12 80 15 16 2 63 11 104 19 41 8 86 17 100 19 32 6 119 23 125 25 3 0 6 1 8 2
1 0 13 2 27 4 14 2 36 6 50 8 14 3 88 17 165 31 77 15 147 28 155 31 17 5 52
11 117 21 l44 6 -6 47 c-5 39 -37 200 -51 254 -2 9 -6 25 -8 35 -2 9 -9 37
-16 62 -7 25 -13 50 -15 55 -1 6 -5 17 -8 25 -3 8 -19 56 -35 105 -35 103
-109 284 -124 303 -6 6 -8 12 -5 12 3 0 -5 19 -18 43 -14 23 -31 56 -38 73 -8
17 -27 50 -43 75 -16 24 -28 46 -29 49 0 4 -38 61 -155 235 -8 12 -22 29 -30
37 -8 9 -28 33 -45 54 -86 110 -291 304 -420 399 -22 16 -41 33 -43 37 -2 4
-8 8 -13 8 -6 0 -36 17 -67 39 -31 21 -97 59 -147 86 -49 26 -96 52 -102 57
-7 6 -13 8 -13 5 0 -3 -28 7 -62 22 -54 25 -231 89 -263 96 -5 1 -28 5 -50 10
-22 4 -44 11 -50 14 -5 4 -17 7 -25 6 -8 -1 -25 2 -37 6 -11 4 -47 11 -80 15
-32 3 -67 8 -78 11 -98 21 -447 20 -767 -2 -64 -5 -65 -3 -48 55 6 19 13 51
16 70 3 19 10 42 15 51 4 9 6 19 2 22 -3 4 -1 13 5 20 7 8 10 16 7 19 -3 2 0
20 5 39 10 32 17 66 26 114 2 11 8 38 14 60 6 22 13 49 15 60 2 11 9 43 15 70
7 28 14 59 15 70 2 11 4 20 5 20 2 0 4 11 13 55 5 22 19 83 33 143 2 9 6 25 8
35 2 9 16 71 31 137 15 66 28 125 29 132 1 7 5 15 9 19 3 4 670 6 1482 6
l1475 0 0 668 0 668 -1610 0 c-1202 0 -1611 -3 -1618 -11z"/>
</g>
</svg>
