<?xml version="1.0" encoding="utf-8"?>
<!-- Generator: Adobe Illustrator 23.0.4, SVG Export Plug-In . SVG Version: 6.00 Build 0)  -->
<svg version="1.1" id="Layer_1" xmlns="http://www.w3.org/2000/svg" xmlns:xlink="http://www.w3.org/1999/xlink" x="0px" y="0px"
	 viewBox="0 0 400 400" style="enable-background:new 0 0 400 400;" xml:space="preserve">
<style type="text/css">
	.st0{fill-rule:evenodd;clip-rule:evenodd;fill:#555555;}
</style>
<g>
	<path class="st0" d="M295.2,349.7H59.6c-5.6,0-10.2-4.6-10.2-10.2V104c0-5.6,4.6-10.2,10.2-10.2V71.3C41.6,71.3,27,86,27,104v235.6
		c0,18,14.6,32.6,32.6,32.6h235.6c18,0,32.6-14.6,32.6-32.6h-22.5C305.3,345.1,300.8,349.7,295.2,349.7z"/>
	<path class="st0" d="M340.4,27.9H104.8c-18,0-32.6,14.6-32.6,32.6V296c0,18,14.6,32.6,32.6,32.6h235.6c18,0,32.6-14.6,32.6-32.6
		V60.5C373,42.5,358.4,27.9,340.4,27.9z M350.6,296c0,5.6-4.6,10.2-10.2,10.2H104.8c-5.6,0-10.2-4.6-10.2-10.2V60.5
		c0-5.6,4.6-10.2,10.2-10.2h235.6c5.6,0,10.2,4.6,10.2,10.2V296z"/>
	<path class="st0" d="M316,239.8c-6.8-12.2-13.6-24.3-20.4-36.4c-9.1-16.3-18.2-32.5-27.2-48.8c-0.6-1.1-1.2-2.2-1.9-3.2
		c-5.2-7.9-13.2-8.2-18.6-0.4c-3.3,4.8-6.3,9.9-9.4,14.8c-6.8,10.8-13.5,21.7-20.4,32.4c-6.1,9.4-16.9,12.5-25.5,6.9
		c-9.7-6.3-22.3-3.1-28.9,4.7c-9.5,11.3-19.1,22.5-28.6,33.8c-1.3,1.5-2.4,3.2-3.1,5c-1.7,4.2,0,7.8,4.4,9.1
		c2.2,0.6,4.5,0.8,6.8,0.9c27,0.1,54,0,81.1,0c27,0,54,0,81.1,0c1.9,0,3.8-0.2,5.6-0.5c6.6-1.4,9.6-6.5,7.6-12.9
		C317.9,243.3,317,241.5,316,239.8z"/>
	<path class="st0" d="M158,167.4c16.8-0.2,30.2-13.7,30.2-30.6c0-16.8-13.5-30.4-30.3-30.4c-16.8-0.1-30.6,13.7-30.6,30.6
		C127.4,153.7,141.3,167.6,158,167.4z"/>
</g>
</svg>
