<?xml version="1.0" encoding="utf-8"?>
<!-- Generator: Adobe Illustrator 23.0.4, SVG Export Plug-In . SVG Version: 6.00 Build 0)  -->
<svg version="1.1" id="Layer_1" xmlns="http://www.w3.org/2000/svg" xmlns:xlink="http://www.w3.org/1999/xlink" x="0px" y="0px"
	 viewBox="0 0 400 400" style="enable-background:new 0 0 400 400;" xml:space="preserve">
<style type="text/css">
	.st0{display:none;}
	.st1{display:inline;fill-rule:evenodd;clip-rule:evenodd;fill:#555555;}
	.st2{display:inline;fill:#555555;}
	.st3{fill:#555555;}
</style>
<g class="st0">
	<path class="st1" d="M295.2,349.7H59.6c-5.6,0-10.2-4.6-10.2-10.2V104c0-5.6,4.6-10.2,10.2-10.2V71.3C41.6,71.3,27,86,27,104v235.6
		c0,18,14.6,32.6,32.6,32.6h235.6c18,0,32.6-14.6,32.6-32.6h-22.5C305.3,345.1,300.8,349.7,295.2,349.7z"/>
	<path class="st1" d="M340.4,27.9H104.8c-18,0-32.6,14.6-32.6,32.6V296c0,18,14.6,32.6,32.6,32.6h235.6c18,0,32.6-14.6,32.6-32.6
		V60.5C373,42.5,358.4,27.9,340.4,27.9z M350.6,296c0,5.6-4.6,10.2-10.2,10.2H104.8c-5.6,0-10.2-4.6-10.2-10.2V60.5
		c0-5.6,4.6-10.2,10.2-10.2h235.6c5.6,0,10.2,4.6,10.2,10.2V296z"/>
	<path class="st1" d="M316,239.8c-6.8-12.2-13.6-24.3-20.4-36.4c-9.1-16.3-18.2-32.5-27.2-48.8c-0.6-1.1-1.2-2.2-1.9-3.2
		c-5.2-7.9-13.2-8.2-18.6-0.4c-3.3,4.8-6.3,9.9-9.4,14.8c-6.8,10.8-13.5,21.7-20.4,32.4c-6.1,9.4-16.9,12.5-25.5,6.9
		c-9.7-6.3-22.3-3.1-28.9,4.7c-9.5,11.3-19.1,22.5-28.6,33.8c-1.3,1.5-2.4,3.2-3.1,5c-1.7,4.2,0,7.8,4.4,9.1
		c2.2,0.6,4.5,0.8,6.8,0.9c27,0.1,54,0,81.1,0c27,0,54,0,81.1,0c1.9,0,3.8-0.2,5.6-0.5c6.6-1.4,9.6-6.5,7.6-12.9
		C317.9,243.3,317,241.5,316,239.8z"/>
	<path class="st1" d="M158,167.4c16.8-0.2,30.2-13.7,30.2-30.6c0-16.8-13.5-30.4-30.3-30.4c-16.8-0.1-30.6,13.7-30.6,30.6
		C127.4,153.7,141.3,167.6,158,167.4z"/>
</g>
<g class="st0">
	<path class="st2" d="M238.5,194.9c-4,0-7.2-3.2-7.2-7.2c0-4,3.2-7.2,7.2-7.2H266v-15.4h-27.6c-4,0-7.2-3.2-7.2-7.2
		c0-4,3.2-7.2,7.2-7.2h18.8v-15.4h-18.8c-4,0-7.2-3.2-7.2-7.2c0-4,3.2-7.2,7.2-7.2h18.8v-15.4h-18.8c-4,0-7.2-3.2-7.2-7.2
		c0-4,3.2-7.2,7.2-7.2h18.8V75.5h-18.8c-4,0-7.2-3.2-7.2-7.2c0-4,3.2-7.2,7.2-7.2h18.6C255.3,42.5,239.6,28,220.6,28h-41.2
		c-19,0-34.7,14.5-36.5,33.1h18.6c4,0,7.2,3.2,7.2,7.2c0,4-3.2,7.2-7.2,7.2h-18.8v15.4h18.8c4,0,7.2,3.2,7.2,7.2
		c0,4-3.2,7.2-7.2,7.2h-18.8v15.4h18.8c4,0,7.2,3.2,7.2,7.2c0,4-3.2,7.2-7.2,7.2h-18.8v15.4h18.8c4,0,7.2,3.2,7.2,7.2
		c0,4-3.2,7.2-7.2,7.2H134v15.4h27.6c4,0,7.2,3.2,7.2,7.2c0,4-3.2,7.2-7.2,7.2h-18.6c1.8,18.6,17.4,33.1,36.5,33.1h41.2
		c19,0,34.7-14.5,36.5-33.1H238.5z"/>
	<path class="st2" d="M287.5,155.9c-0.4,0-0.7,0.1-1,0.1v-44.9c0-4-3.3-7.3-7.3-7.3s-7.3,3.3-7.3,7.3v78.2
		c-0.1,15.6-7.4,28.1-20.2,37.5c-12.8,9.3-31.1,14.9-51.7,14.9c-20.6,0-38.9-5.6-51.7-14.9c-12.8-9.4-20.1-21.9-20.2-37.5v-78.2
		c0-4-3.3-7.3-7.3-7.3c-4,0-7.3,3.3-7.3,7.3V156c-0.3,0-0.7-0.1-1-0.1c-4,0-7.3,3.3-7.3,7.3v17.5c0,4,3.3,7.3,7.3,7.3
		c0.4,0,0.7-0.1,1-0.1v1.4c-0.1,20.6,10.3,37.9,26.2,49.3c7.9,5.7,17.1,10.1,27.2,13.1v18.6c0,3.7,1.4,7.5,4.3,10.3
		c2.5,2.5,5.8,3.9,9.1,4.2v9.4c0,2.2,0.8,4.5,2.5,6.2c1.7,1.7,3.9,2.5,6.2,2.5h1.1v49.6h-22.7c-3.7,0-7.5,1.4-10.3,4.3
		c-2.9,2.9-4.3,6.6-4.3,10.3v4.9h94.4v-4.9c0-3.7-1.4-7.5-4.3-10.3c-2.9-2.9-6.6-4.3-10.3-4.3h-22.7v-49.6h1.1
		c2.2,0,4.5-0.8,6.1-2.5c1.7-1.7,2.5-3.9,2.5-6.2v-9.4c3.3-0.3,6.6-1.6,9.1-4.2c2.9-2.9,4.3-6.6,4.3-10.3v-18.6
		c10.1-3,19.3-7.4,27.2-13.1c15.9-11.4,26.3-28.8,26.2-49.3v-1.4c0.3,0,0.7,0.1,1,0.1c4,0,7.3-3.3,7.3-7.3v-17.5
		C294.8,159.2,291.5,155.9,287.5,155.9z"/>
</g>
<g>
	<g>
		<path class="st3" d="M368.8,73.4H31.2c-6.2,0-11.2,5.1-11.2,11.2v219.4c0,12.4,10.1,22.5,22.5,22.5h315
			c12.4,0,22.5-10.1,22.5-22.5V84.7C380,78.5,374.9,73.4,368.8,73.4z M183.1,275.9c0,6.2-5.1,11.2-11.2,11.2H70.6
			c-6.2,0-11.2-5.1-11.2-11.2v-90c0-6.2,5.1-11.2,11.2-11.2h101.2c6.2,0,11.2,5.1,11.2,11.2V275.9z M323.2,287.2h-95.6
			c-6.2,0-11.2-5-11.2-11.2s5-11.2,11.2-11.2h95.6c6.2,0,11.2,5,11.2,11.2S329.4,287.2,323.2,287.2z M323.2,242.2h-95.6
			c-6.2,0-11.2-5-11.2-11.2s5-11.2,11.2-11.2h95.6c6.2,0,11.2,5,11.2,11.2S329.4,242.2,323.2,242.2z M323.8,197.2h-95.6
			c-6.2,0-11.2-5-11.2-11.2s5-11.2,11.2-11.2h95.6c6.2,0,11.2,5,11.2,11.2S330,197.2,323.8,197.2z M323.8,140.9H70.6
			c-6.2,0-11.2-5-11.2-11.2c0-6.2,5-11.2,11.2-11.2h253.1c6.2,0,11.2,5,11.2,11.2C335,135.9,330,140.9,323.8,140.9z"/>
	</g>
</g>
</svg>
