<?xml version="1.0" encoding="utf-8"?>
<!-- Generator: Adobe Illustrator 23.0.2, SVG Export Plug-In . SVG Version: 6.00 Build 0)  -->
<svg version="1.1" id="Layer_1" xmlns="http://www.w3.org/2000/svg" xmlns:xlink="http://www.w3.org/1999/xlink" x="0px" y="0px"
	 viewBox="0 0 233 200" style="enable-background:new 0 0 233 200;" xml:space="preserve">
<style type="text/css">
	.st0{fill:#FFFFFF;}
	.st1{fill:#FFC629;}
</style>
<g>
	<path class="st0" d="M19,29.7c-5.5,0-9.3-4.2-9.3-9.2c0-5.1,3.9-9.3,9.4-9.3s9.3,4.2,9.3,9.2C28.4,25.5,24.5,29.7,19,29.7z M19,14
		c-3.6,0-6,2.8-6,6.3s2.5,6.4,6.1,6.4c3.6,0,6-2.8,6-6.3S22.6,14,19,14z"/>
	<path class="st0" d="M46,21.6c0,5.4-3,8-7.7,8c-4.7,0-7.6-2.7-7.6-7.9V11.4h3.1v10.2c0,3.3,1.7,5.1,4.5,5.1c2.8,0,4.5-1.7,4.5-5
		V11.4H46V21.6z"/>
	<path class="st0" d="M60.5,29.4l-4.4-6.2h-3.9v6.2H49V11.4h8c4.1,0,6.7,2.2,6.7,5.7c0,3-1.8,4.8-4.3,5.5l4.8,6.8H60.5z M56.8,14.3
		h-4.6v6h4.6c2.3,0,3.7-1.2,3.7-3C60.5,15.3,59.1,14.3,56.8,14.3z"/>
	<path class="st0" d="M85.2,11.4h3.1v17.9h-2.6l-9.9-12.8v12.8h-3.1V11.4h2.9l9.6,12.4V11.4z"/>
	<path class="st0" d="M104.9,14.3H94.8v4.7h9v2.8h-9v4.8H105v2.8H91.6V11.4h13.3V14.3z"/>
	<path class="st0" d="M119.2,29.4l-4.7-6.8l-4.7,6.8h-3.6l6.5-9.1l-6.3-8.8h3.7l4.5,6.4l4.5-6.4h3.6l-6.2,8.8l6.5,9.2H119.2z"/>
	<path class="st0" d="M132.4,29.4h-3.2v-15h-5.7v-2.9h14.5v2.9h-5.7V29.4z"/>
</g>
<g>
	<path class="st1" d="M154.6,97.2l-9.9,0.5l6.8-30h74V34.3h-80.6l-33.4,62.5l-8.3,40.8h6c8.1-7.6,20.3-12.8,31.6-12.8
		c20.9,0,37.1,16.5,38.3,36.8l38.2-7.2C212.8,122.3,189.1,95.3,154.6,97.2z"/>
	<polygon class="st1" points="137.8,34.3 6.8,34.3 6.8,67.7 79.6,67.7 11.6,193.9 57.2,185.3 	"/>
</g>
</svg>
