<?xml version="1.0" encoding="utf-8"?>
<!-- Generator: Adobe Illustrator 23.0.2, SVG Export Plug-In . SVG Version: 6.00 Build 0)  -->
<svg version="1.1" xmlns="http://www.w3.org/2000/svg" xmlns:xlink="http://www.w3.org/1999/xlink" x="0px" y="0px"
	 viewBox="0 0 50 50" style="enable-background:new 0 0 50 50;" xml:space="preserve">
<style type="text/css">
	.st0{display:none;}
	.st1{display:inline;}
	.st2{fill:none;stroke:#333333;stroke-width:2;stroke-miterlimit:10;}
	.st3{fill:none;stroke:#333333;stroke-width:2;stroke-linecap:round;stroke-miterlimit:10;}
</style>
<g id="Layer_1" class="st0">
	<g class="st1">
		<circle class="st2" cx="25" cy="20.1" r="9.1"/>
		<path class="st2" d="M41.8,20.3c0-9.4-7.5-17-16.8-17c-9.3,0-16.8,7.6-16.8,17c0,11.5,12.4,23.1,15.9,26.1c0.5,0.5,1.3,0.5,1.8,0
			C29.4,43.3,41.8,31.8,41.8,20.3z"/>
	</g>
</g>
<g id="Layer_2" class="st0">
	<g class="st1">
		<line class="st3" x1="42" y1="18" x2="48" y2="18"/>
		<line class="st3" x1="2" y1="18" x2="35" y2="18"/>
		<path class="st3" d="M36.5,11h-1c-1.1,0-2-0.9-2-2V5c0-1.1,0.9-2,2-2h1c1.1,0,2,0.9,2,2v4C38.5,10.1,37.6,11,36.5,11z"/>
		<path class="st3" d="M14.5,11h-1c-1.1,0-2-0.9-2-2V5c0-1.1,0.9-2,2-2h1c1.1,0,2,0.9,2,2v4C16.5,10.1,15.6,11,14.5,11z"/>
		<path class="st3" d="M38.5,7H44c2.2,0,4,1.8,4,4v18v7v7c0,2.2-1.8,4-4,4H6c-2.2,0-4-1.8-4-4V29"/>
		<line class="st3" x1="16.5" y1="7" x2="33.5" y2="7"/>
		<path class="st3" d="M2,22V11c0-2.2,1.8-4,4-4h5.5"/>
		<line class="st3" x1="22" y1="25" x2="27" y2="25"/>
		<line class="st3" x1="34" y1="25" x2="39" y2="25"/>
		<line class="st3" x1="22" y1="33" x2="27" y2="33"/>
		<line class="st3" x1="10" y1="33" x2="15" y2="33"/>
		<line class="st3" x1="34" y1="33" x2="39" y2="33"/>
		<line class="st3" x1="22" y1="41" x2="27" y2="41"/>
		<line class="st3" x1="10" y1="41" x2="15" y2="41"/>
	</g>
</g>
<g id="Layer_3">
	<g>
		<circle class="st3" cx="25" cy="25" r="23.2"/>
		<line class="st2" x1="25" y1="7.4" x2="25" y2="10.6"/>
		<line class="st2" x1="42.6" y1="25" x2="39.4" y2="25"/>
		<line class="st2" x1="25" y1="42.6" x2="25" y2="39.4"/>
		<line class="st2" x1="7.4" y1="25" x2="10.6" y2="25"/>
		<line class="st3" x1="22.6" y1="27.4" x2="33.8" y2="16.2"/>
		<line class="st3" x1="27.4" y1="27.4" x2="19.4" y2="19.4"/>
	</g>
</g>
</svg>
