<?xml version="1.0" encoding="utf-8"?>
<!-- Generator: Adobe Illustrator 23.0.3, SVG Export Plug-In . SVG Version: 6.00 Build 0)  -->
<svg version="1.1" id="layer" xmlns="http://www.w3.org/2000/svg" xmlns:xlink="http://www.w3.org/1999/xlink" x="0px" y="0px"
	 viewBox="0 0 652 258" style="enable-background:new 0 0 652 258;" xml:space="preserve">
<style type="text/css">
	.st0{fill:#000101;}
	.st1{fill:#008BCD;}
</style>
<g>
	<path class="st0" d="M155.4,103.1c-19.6,0-35.6-16-35.6-35.6s16-35.6,35.6-35.6s35.6,16,35.6,35.6
		C190.9,87.2,175,103.1,155.4,103.1 M155.4,23.3c-24.4,0-44.3,19.9-44.3,44.3s19.9,44.3,44.3,44.3s44.3-19.9,44.3-44.3
		S179.8,23.3,155.4,23.3"/>
	<path class="st0" d="M537.2,68.1c-2.4-1.2-16.8-8.7-18.9-9.8C510.7,54.4,508,51,508,45.2c0-8.1,6.6-13.3,16.9-13.3
		c6,0,11.9,2.6,15.3,4.6c0.6,0.3,1.4,0.5,2.1,0.5c2.4,0,4.4-1.9,4.4-4.3c0-1.6-0.9-3-2.2-3.8c-4.3-2.4-11.6-5.7-19.5-5.7
		c-15.1,0-25.6,9-25.6,22c0,11.6,7.6,17.1,15.1,20.9c2.1,1.1,16.7,8.6,18.9,9.8c5.8,3,9,7.6,9,12.8c0,7-5.9,14.4-16.9,14.4
		c-10.7,0-19-7.2-21.2-9.4l-0.7-0.7l-6.5,5.9l0.8,0.7c2.9,2.8,13.3,12.1,27.6,12.1c16,0,25.6-11.8,25.6-23.2
		C551,80.2,546,72.7,537.2,68.1"/>
	<path class="st0" d="M64.6,32c9.5,0,18.4,3.7,25.2,10.4c1.6,1.6,4.6,1.6,6.2,0c0.8-0.8,1.3-1.9,1.3-3.1c0-1.2-0.4-2.3-1.3-3.1
		l-0.5-0.5c-8.3-8-19.2-12.4-30.8-12.4c-24.4,0-44.3,19.9-44.3,44.3s19.9,44.3,44.3,44.3c12.9,0,24.5-5.5,32.6-14.4l-6.2-6.2
		c-6.5,7.2-16,11.8-26.4,11.8c-19.6,0-35.6-16-35.6-35.6C29,48,45,32,64.6,32"/>
	<path class="st0" d="M364.8,32c9.5,0,18.4,3.7,25.1,10.4c1.6,1.6,4.6,1.6,6.2,0c0.8-0.8,1.3-1.9,1.3-3.1c0-1.2-0.5-2.3-1.3-3.1
		l-0.5-0.5c-8.3-8-19.2-12.4-30.8-12.4c-24.4,0-44.3,19.9-44.3,44.3s19.9,44.3,44.3,44.3c12.9,0,24.5-5.5,32.6-14.4l-6.2-6.2
		c-6.5,7.2-15.9,11.8-26.4,11.8c-19.6,0-35.6-16-35.6-35.6C329.2,48,345.2,32,364.8,32"/>
	<path class="st0" d="M289.8,23.3c-1.6,0-2.9,1.1-3.6,2.4c-0.7,1.4-26.1,64-26.1,64S234.7,27,234,25.7c-0.7-1.4-2-2.4-3.6-2.4
		c-1.9,0-3.4,1.4-3.9,3.2s-14.8,80.7-14.8,80.7c0,0.3-0.1,0.5-0.1,0.8c0,2.2,1.8,3.9,3.9,3.9c1.9,0,3.5-1.4,3.9-3.2l12.4-67.5
		c0,0,23.9,59,24.6,60.4c0.7,1.4,2,2.5,3.7,2.5c1.6,0,3-1.1,3.7-2.5s24.6-60.4,24.6-60.4l12.9,70.2h8c0,0-15.1-83.1-15.6-84.9
		C293.1,24.7,291.7,23.3,289.8,23.3"/>
	<path class="st0" d="M434.1,70l13.2-32.4L460.5,70H434.1z M447.2,23.3c-1.7,0-2.9,1.1-3.7,2.5c-0.7,1.4-32.8,80.6-32.8,80.6
		c-0.2,0.5-0.3,1-0.3,1.5c0,2.2,1.7,3.9,3.9,3.9c1.7,0,3.1-1,3.7-2.5l12.5-30.6H464l13.3,32.6h8.5c0,0-34.1-84.2-34.8-85.6
		C450.2,24.4,448.9,23.3,447.2,23.3"/>
	<path class="st0" d="M619.6,28.1c0-2.4-2-4.4-4.4-4.4H566c-2.4,0-4.4,1.9-4.4,4.4c0,2.4,1.9,4.3,4.4,4.3h20.7v78.9h8V32.4h20.6
		C617.7,32.5,619.6,30.5,619.6,28.1"/>
	<path class="st1" d="M285.2,141.6c-4.4,0-7.1,3.1-7.1,6.9v81.7h14.2v-81.7C292.3,144.7,289.6,141.6,285.2,141.6"/>
	<path class="st1" d="M124.1,195.2v-46.7c0-3.8-2.8-6.9-7.1-6.9c-4.4,0-7.1,3.1-7.1,6.9v46.2c0,19.8,13.9,35.9,36.2,35.9
		c22.2,0,36.2-16.1,36.2-35.9V142H168v53.1c0,11.7-7.8,22.1-21.9,22.1C131.9,217.3,124.1,206.9,124.1,195.2"/>
	<path class="st1" d="M468,156c4.7,0,7.5-3,7.5-6.9s-2.9-6.9-7.5-6.9h-43.5c-4,0-6.9,2.9-6.9,6.9v74.4c0,3.9,2.9,6.8,6.9,6.8H475
		v-13.8h-43.2v-25.6h32.6c4.9,0,7.7-2.9,7.7-6.9s-2.7-6.9-7.7-6.9h-32.6V156H468z"/>
	<path class="st1" d="M62.4,216.6H40.2v-26.3h22.2c10.2,0,15.1,5.9,15.1,13.2C77.5,210.7,72.4,216.6,62.4,216.6 M40.2,155.9h21.3
		c8,0,11.9,4.8,11.9,10.7c0,5.9-4.3,10.7-11.9,10.7H40.2V155.9z M78.9,182.5c2.4-1.5,8.9-6.6,8.9-18.1c0-13.5-9.7-22.4-24.5-22.4
		H32.9c-4.1,0-6.9,2.8-6.9,6.9v81.2h39.1c15.8,0,26.8-11.5,26.8-26.3C91.9,188.2,81.4,183.7,78.9,182.5"/>
	<path class="st1" d="M327.4,141.6c-4.3,0-7.1,3.1-7.1,6.8v75.4c0,3.8,3.3,6.8,7.1,6.8c3.7,0,7-3,7-6.8v-54.4
		c0,0,34.6,44.2,43.7,55.9c2.3,2.9,3.9,5.4,8,5.4s6.9-3,6.9-6.8v-81.7h-14v61c0,0-38.5-49.4-43.9-56.3
		C332.6,143.7,330.7,141.6,327.4,141.6"/>
	<path class="st1" d="M198.8,217.6c1.8,2.3,10.1,13.1,28.4,13.1c18,0,30.2-10.3,30.2-24.8c0-9.5-3.7-17.1-17.8-23.9
		c-3.8-1.8-14.3-6.9-14.3-6.9c-5.6-2.7-8.1-5.9-8.1-10.3c0-4.6,3.8-9.6,13.1-9.6c5.3,0,9.4,1.7,11.5,2.7c1.1,0.5,3.6,1.7,6,1.7
		c3.1,0,6.5-2.2,6.5-6.7c0-3.8-2.7-5.8-5.1-6.9c-3.8-1.8-9.7-4.4-19.6-4.4c-15.7,0-27.3,9.9-27.3,23.7c0,12.6,8.5,18.9,18.7,23.8
		c1.9,0.9,9.5,4.6,11.6,5.6c6.5,3.1,9.9,6.1,9.9,11.5c0,5.9-5.5,10.8-13.8,10.8c-11.9,0-18.3-7.8-19.4-9.1L198.8,217.6z"/>
	<path class="st1" d="M489.6,217.6c1.8,2.3,10.2,13.1,28.5,13.1c17.9,0,30.1-10.3,30.1-24.8c0-9.5-3.7-17.1-17.8-23.9
		c-3.7-1.8-14.3-6.9-14.3-6.9c-5.6-2.7-8.1-5.9-8.1-10.3c0-4.6,3.8-9.6,13.1-9.6c5.3,0,9.3,1.7,11.5,2.7c1.1,0.5,3.6,1.7,6,1.7
		c3.1,0,6.5-2.2,6.5-6.7c0-3.8-2.7-5.8-5.1-6.9c-3.8-1.8-9.8-4.4-19.6-4.4c-15.7,0-27.3,9.9-27.3,23.7c0,12.6,8.5,18.9,18.7,23.8
		c2,0.9,9.6,4.6,11.7,5.6c6.4,3.1,9.8,6.1,9.8,11.5c0,5.9-5.5,10.8-13.8,10.8c-12,0-18.3-7.8-19.4-9.1L489.6,217.6z"/>
	<path class="st1" d="M561.7,217.6c1.8,2.3,10.1,13.1,28.4,13.1c17.9,0,30.2-10.3,30.2-24.8c0-9.5-3.8-17.1-17.8-23.9
		c-3.8-1.8-14.4-6.9-14.4-6.9c-5.5-2.7-8-5.9-8-10.3c0-4.6,3.8-9.6,13-9.6c5.3,0,9.4,1.7,11.6,2.7c1,0.5,3.5,1.7,5.9,1.7
		c3.1,0,6.5-2.2,6.5-6.7c0-3.8-2.7-5.8-5.1-6.9c-3.8-1.8-9.7-4.4-19.6-4.4c-15.7,0-27.3,9.9-27.3,23.7c0,12.6,8.4,18.9,18.7,23.8
		c1.9,0.9,9.5,4.6,11.6,5.6c6.5,3.1,9.9,6.1,9.9,11.5c0,5.9-5.5,10.8-13.8,10.8c-11.9,0-18.3-7.8-19.4-9.1L561.7,217.6z"/>
</g>
</svg>
