<?xml version="1.0" encoding="utf-8"?>
<!-- Generator: Adobe Illustrator 23.0.3, SVG Export Plug-In . SVG Version: 6.00 Build 0)  -->
<svg version="1.1" id="Layer_1" xmlns="http://www.w3.org/2000/svg" xmlns:xlink="http://www.w3.org/1999/xlink" x="0px" y="0px"
	 viewBox="0 0 449 128.1" style="enable-background:new 0 0 449 128.1;" xml:space="preserve">
<style type="text/css">
	.st0{fill:#9A9894;}
	.st1{fill:#1877A8;}
</style>
<g>
	<path class="st0" d="M17.7,56.5C14,43.2,21.7,29.4,35,25.7c13.3-3.7,27.1,4,30.8,17.3c3.7,13.3-4,27.1-17.3,30.8
		C35.2,77.5,21.4,69.8,17.7,56.5 M19.4,56c0.5,1.6,0.3,3.1,1.1,4.5c0.2,0.5,0.8,0.9,1.1,1.2c0.6,0.5,1,1,1.6,1.7
		c1,1.3,1.9,3.4,3.2,4.4c1.1,0.9,2.9,1.5,4.2,2.2c0.9,0.5,1.4,1.2,2.4,1.6c0.7,0.3,1.8,0.2,2.5,0.4c0.9,0.3,1.8,0.9,2.7,1.1
		c1.1,0.2,2.4-0.3,3.4-0.2c1.1,0.1,2.2,0.5,3.2,0.3c0.6-0.1,1.2-0.3,1.9-0.3c0.6-0.1,1.1-0.1,1.7-0.2c1-0.2,1.6-1.2,2.6-1.6
		c1-0.5,3-0.9,3.9-1.6c1.3-1,1.3-1.5,2.5-2.8c0.7-0.7,2.3-1.2,2.6-1.6c0.3-0.4,0.1-1,0.5-1.3c0.6-0.6,1.6-1.2,2-1.8
		c0.3-0.7,0.2-1.9,0.5-2.7c0.4-1,1.2-1.4,1.5-2.5c0.3-0.9-0.1-1.8,0-2.8c0.1-0.6,0.7-1,0.8-1.7c0-0.5-0.1-1.2-0.1-1.7
		c0-0.6,0.4-1.3,0.3-1.9c0.2-1.8-0.3-3.3-1.3-4.8c-0.5-0.8-0.8-1.5-1.1-2.3c-0.4-1.2-0.3-1.8-0.6-2.4c-0.5-1.2-1.3-1.4-1.8-2
		c-0.4-0.6-0.6-1.4-1-2c-0.5-1-1.1-1.9-1.9-2.6c-0.4-0.4-1.5-0.4-1.9-0.8c-0.4-0.4-0.8-1-1.2-1.3c-0.5-0.4-1.3-0.3-1.8-0.6
		c-0.6-0.4-0.9-1-1.5-1.3c-0.4-0.2-1.6-0.5-2.6-0.5c-0.8,0-1.8-0.3-2.3-0.5c-0.9-0.2-1.9-0.8-2.9-0.9c-0.7-0.1-2.5,0.4-3.4,0.5
		c-1,0.1-2-0.2-2.9-0.1c-0.6,0.1-2.4,1.2-3.2,1.4c-1.6,0.5-2.7,0.2-4,1c-0.6,0.3-0.9,1.1-1.4,1.8c-0.6,0.7-1.3,1.2-2.1,1.7
		c-0.6,0.4-1.5,0.8-2.1,1.4c-0.9,0.8-1.1,2.4-1.6,2.9c-0.5,0.5-1.4,0.7-1.7,1.2c-0.3,0.5-0.4,1.8-0.6,2.3c-0.2,0.5-0.7,0.6-1,0.9
		c-0.5,0.7-0.3,2.6-0.6,3.4c-0.4,0.9-0.7,1.5-0.8,2.3c-0.2,1.1,0.4,2,0.6,3.4c0.1,0.6,0,1-0.1,1.6c-0.1,0.4-0.6,0.9-0.4,1.6
		C18.3,54.3,19.2,55.1,19.4,56 M28.9,40.3c-0.5-1.8,0.5-3.7,2.4-4.2c1.8-0.5,3.7,0.5,4.2,2.4c0.5,1.8-0.5,3.7-2.4,4.2
		C31.3,43.1,29.5,42.1,28.9,40.3 M32.5,36.6c0-0.1-0.2-0.3-0.8-0.2c-1.1,0.2-2.2,1.2-2.3,2.1c0,0.4,0.2,0.4,0.6,0.1
		c0.3-0.2,0.8-0.5,1.3-0.9C31.7,37.5,32.5,36.9,32.5,36.6 M47.8,40.3c-0.5-1.8,0.5-3.7,2.4-4.2c1.8-0.5,3.7,0.5,4.2,2.4
		c0.5,1.8-0.5,3.7-2.4,4.2C50.2,43.2,48.3,42.1,47.8,40.3 M51.4,36.8c0-0.1-0.2-0.2-0.8-0.2c-1.1,0.1-2.2,1.3-2.3,2.1
		c0,0.4,0.2,0.4,0.6,0.1c0.3-0.2,0.8-0.5,1.3-0.9C50.6,37.7,51.5,37.1,51.4,36.8 M38.4,48.2c-0.5-1.7,0.5-3.4,2.2-3.9
		c1.7-0.5,3.4,0.5,3.9,2.2c0.5,1.7-0.5,3.4-2.2,3.9C40.6,50.8,38.9,49.8,38.4,48.2 M41.7,44.8c0-0.1-0.2-0.2-0.7-0.2
		c-1,0.2-2,1.1-2,1.9c0,0.3,0.2,0.4,0.5,0.1c0.3-0.2,0.8-0.5,1.2-0.8C40.9,45.7,41.7,45.1,41.7,44.8 M27,53.5
		c0.1,1.6,1.5,5.1,4.2,8.1c3.2,3.6,8.5,6,13.6,4.5c3.6-1,6-3.2,7.7-5.4c1.8-2.8,2.6-4.5,3.1-6.4c0.2-0.7,0.1-1.4-0.1-1.7
		c-0.3-0.6-1.1-1-1.7-1.5c-0.6-0.5-1.4-0.9-1.7-1.5c-0.6-1.2,0.6-2.6,2-2.3c1.5,0.4,2.4,1.1,3.6,1.5c1,0.3,1.1,0.3,1.9,0.5
		c0.8,0.2,1.1,0.1,1.6,0.3c0.5,0.1,0.9,0.8,0.8,1.4c-0.1,0.5-0.6,1-1.2,1.2c-0.9,0.3-1.7,0.3-2.4,0.6c-0.3,0.1-0.5,0.4-0.6,0.6
		c-0.3,0.7-3.1,11.7-12.6,14.1c-3.9,1-8.1,1-12.4-2.3c-3.5-2.6-5.8-6.7-7.5-10.7c-0.1-0.3-0.3-0.6-0.7-0.9c-0.2-0.2-0.5-0.3-0.7-0.4
		c-0.4-0.1-0.9-0.2-1.3-0.4c-0.4-0.1-0.7-0.3-1-0.5c-0.6-0.6-0.6-2.1,0.8-2.3c0.2,0,1.1-0.2,1.9-0.5c0.6-0.2,1.5-0.6,1.9-0.8
		c1-0.5,1.8-0.7,2.5-0.9c0.7-0.1,1.7,0.1,2.1,0.7c0.4,0.7,0.1,1.6-0.6,2.1c-0.9,0.7-2,1.2-2.4,1.5C27.4,52.4,27,52.9,27,53.5
		 M52.3,49c0.1-0.2,0.2-0.3,0.3-0.4c0.1-0.1,0.3-0.2,0.5-0.2c0.2,0,0.3,0,0.5,0c0.2,0,0.3,0.1,0.4,0.1c0.6,0.3,1.1,0.5,1.5,0.7
		c0.5,0.2,1.1,0.6,1.9,0.9c0.7,0.2,1.8,0.4,2.6,0.5c0.7,0.1,0.9,0.1,1.1,0.4c0.4-0.4,0.1-0.9-1-1c-0.7,0-1.7-0.3-2.4-0.5
		c-1-0.3-2.6-1.1-3.6-1.5C53.2,47.6,52.1,48.1,52.3,49 M21.9,51.7c0-0.5,0.3-0.7,1.2-0.8c0.5-0.1,1.1-0.2,1.5-0.4
		c0.6-0.2,1.6-0.7,2.3-1c0.6-0.3,1.1-0.5,1.7-0.7c0.9-0.3,1.6-0.3,2.1,0.4c0-0.3-0.3-0.7-0.7-0.8c-0.8-0.3-1.6,0-2.3,0.3
		c-0.5,0.2-2.4,1.2-3.3,1.4c-0.6,0.2-1.4,0.3-1.9,0.5C21.9,50.7,21.7,51.2,21.9,51.7 M442,77.7c0,2.2-1.5,3.6-3.4,3.6
		c-2.1,0-3.4-1.6-3.4-3.6c0-2.1,1.5-3.6,3.4-3.6C440.5,74,442,75.5,442,77.7 M442.9,77.7c0-2.7-2-4.4-4.3-4.4
		c-2.3,0-4.3,1.7-4.3,4.4c0,2.5,1.8,4.4,4.3,4.4C440.9,82.1,442.9,80.3,442.9,77.7 M437.8,77.4V76h1c0.5,0,1.1,0.1,1.1,0.7
		c0,0.7-0.5,0.8-1.1,0.8H437.8z M437.8,78.1h0.8l1.3,2.1h0.9l-1.4-2.1c0.7-0.1,1.3-0.4,1.3-1.3c0-1-0.6-1.4-1.8-1.4H437v4.9h0.8
		V78.1z M112.7,20.3C103.1,19.8,93,33.5,97,44.7c-20.5,5.7-22,36.7,3.8,36.7h19.7l6.3-12.3l-24.9,0c-9.6,0-9.6-11.6,0.4-11.6l30,0
		l6.2-12.8l-24.3,0c-7.3,0-6.7-13.2,1.9-13.4l28.9,0l5.2-11H112.7 M155.4,42.3c-11.6,0-20.4,10.5-23.4,21
		c-3.1,10.8,2.2,18.1,9.6,18.1h4.2l5.8-12l-5,0c-5.2,0-0.1-14.1,8-14.1l8-0.1l-12.7,26.2l22-0.1l5.8-12l-8.5,0l13.1-27.1L155.4,42.3
		 M200.4,55.2l8.9,0l6.2-12.9l-8.9,0l10.6-21.9l-14.4,0l-10.6,21.9h-5.2l-6.3,12.9l5.2,0l-7.1,14.6c-1.9,4-0.5,11.6,5.7,11.6h14.1
		l6.5-12h-11.8L200.4,55.2z M216.3,55.2l4,0l-12.7,26.2h15l12.7-26.2h10.3L233,81.4l13.7,0l14.8-30.7c2.2-4.5,0-8.4-4.4-8.4h-16
		c-0.8,0-1.3,0.2-1.8,0.6c-0.4-0.4-0.9-0.6-1.6-0.6h-11.8c-2,0-3.4,0.9-4.6,2.4L216.3,55.2z M222.6,20.3l-6.3,12.9l1,0
		c5.2,0,11.5-2.8,13-5.8l3.4-7.1L222.6,20.3z M295.2,31.4c6.9,0,7.7,13.1-3.4,13.1l-19.3-0.1l-17.9,37h14.2l11.9-24.6l10.9,0.1
		c25.1,0,28.2-36.7,7.6-36.7l-38,0.1l-5.3,11L295.2,31.4z M324.9,42.3c-11.6,0-20.4,10.5-23.4,21c-3.1,10.8,2.2,18.1,9.6,18.1h4.2
		l5.8-12l-4.9,0c-5.2,0,0-14.2,8-14.2h8l-12.7,26.2l21.9,0l5.9-12h-8.5l13.1-27.2H324.9 M356,55.2l-12.7,26.2l13.8,0l12.1-24.9
		c0.6-1.1,1.1-1.4,1.6-1.4l11,0l6.3-13l-12.1,0c-0.6,0-1.1,0.2-1.4,0.6c-0.4-0.4-1-0.6-1.6-0.6h-14.7l-6.3,12.9L356,55.2z
		 M385.6,81.4l8.1-16.8c0.4-0.9,1.7-0.8,2.1-0.3c0.6,0.8,12.4,17.1,12.4,17.1l19.1,0l5.8-12l-16.7,0l-5.7-7.9l19.4-19.3h-17.4
		l-12.1,11.2c-0.6,0.5-2,0.7-1.7,0.1l16.1-33.2l-14.1,0l-29.6,61.1L385.6,81.4z"/>
	<path class="st1" d="M17.4,105c0,1.9,0,2.9,2.1,2.9v0.8c-1.3,0-2.7-0.1-4-0.1c-1.2,0-2.5,0.1-3.7,0.1v-0.8c2.2,0.1,2.1-1,2.1-2.9
		v-7.7c0-1.9,0-2.9-2.1-2.8v-0.8c1.2,0,2.5,0.1,3.7,0.1c1.3,0,2.7-0.1,4-0.1v0.8c-2.2-0.1-2.1,1-2.1,2.8v3.2h6.7v-3.2
		c0-1.9,0-2.9-2.1-2.8v-0.8c1.2,0,2.4,0.1,3.6,0.1c1.4,0,2.8-0.1,4.2-0.1v0.8c-2.2-0.1-2.1,1-2.1,2.8v7.7c0,1.9,0,2.9,2.1,2.9v0.8
		c-1.3,0-2.6-0.1-4-0.1c-1.3,0-2.5,0.1-3.8,0.1v-0.8c2.2,0.1,2.1-1,2.1-2.9v-3.4h-6.7V105z M43.1,94.5c-3.6,0-4.4,3.7-4.4,6.6
		c0,2.9,0.8,6.8,4.4,6.8c3.7,0,4.6-3.4,4.6-6.5C47.7,98.3,46.9,94.5,43.1,94.5 M43.1,108.9c-4.6,0-8.4-2.9-8.4-7.7
		c0-4.8,3.9-7.7,8.4-7.7c4.6,0,8.4,2.9,8.4,7.7C51.6,106,47.7,108.9,43.1,108.9 M59.9,107.4c1,1,2.5,1.5,3.9,1.5
		c2.8,0,5.4-1.6,5.4-4.6c0-3-2.3-4.1-4.7-5.1c-1.3-0.6-3-1.1-3-2.8c0-1.2,1.1-1.9,2.2-1.9c2,0,3.3,1.5,3.7,3.3h1l-0.1-4.1h-1
		l-0.3,0.9c-0.9-0.8-2.2-1.1-3.4-1.1c-2.6,0-4.8,1.5-4.8,4.3c0,2.5,1.7,3.6,3.7,4.5c1.6,0.7,3.8,1.2,3.8,3.4c0,1.4-1.3,2.3-2.6,2.3
		c-2.5,0-3.6-1.9-4.2-4h-0.9v4.7h1L59.9,107.4z M83.9,100.8c2.2,0,3.5-0.6,3.5-3.1c0-1.9-0.9-3-2.8-3c-1.2,0.1-1.2,0-1.2,1.1v4.9
		H83.9z M79.9,97.4c0-1.9,0-3-2.1-2.9v-0.8c1.3,0,2.5,0,3.8,0.1c1.2,0,2.4-0.1,3.6-0.1c2.7,0,6,0.7,6,4.1c0,3.1-3.2,4-5.7,4h-2v3.2
		c0,2,0,2.9,2.3,2.9v0.8c-1.4,0-2.8-0.1-4.1-0.1c-1.2,0-2.4,0.1-3.7,0.1v-0.8c2.2,0.1,2.1-1,2.1-2.9V97.4z M100,105
		c0,1.9,0.1,2.9-2.1,2.9v0.8c1.2,0,2.5-0.1,3.7-0.1c1.3,0,2.7,0.1,4,0.1v-0.8c-2.2,0-2.1-0.9-2.1-2.8v-7.7c0-1.9-0.1-2.9,2.1-2.9
		v-0.8c-1.3,0-2.7,0.1-4,0.1c-1.2,0-2.5-0.1-3.7-0.1v0.8c2.2,0,2.1,1,2.1,2.9V105z M128.3,93.7h-14.6l-0.1,4.3h1
		c0.4-2,1.2-3.4,3.4-3.2c1.4,0.1,1.4,0,1.4,1.7v8.5c0,2,0,2.9-2.3,2.9v0.8c1.3,0,2.7-0.1,4-0.1c1.3,0,2.7,0.1,4,0.1v-0.8
		c-2.3,0.1-2.3-0.8-2.3-2.9v-8.5c0-1.8-0.1-1.7,1.4-1.7c2,0,3.1,1.3,3.3,3.2h1L128.3,93.7z M143.8,102.9l-2-5.2l-2.1,5.2H143.8z
		 M138.9,104.7c-0.2,0.6-0.5,1.3-0.5,1.9c0,1.1,1,1.2,1.9,1.2v0.8c-1,0-1.9-0.1-2.9-0.1c-0.9,0-1.7,0.1-2.6,0.1v-0.8
		c1.9,0,2.5-2.2,3.1-3.6l4.5-10.8h1.1l4.7,11.6c0.2,0.6,0.7,1.7,1.2,2.2c0.4,0.4,1,0.5,1.5,0.5v0.8c-1.4,0-2.7-0.1-4.1-0.1
		c-1.2,0-2.4,0.1-3.6,0.1v-0.8c0.7-0.1,1.9,0,1.9-1c0-0.4-0.3-1.2-0.4-1.5l-0.5-1.3h-5L138.9,104.7z M158.3,108.7
		c1.3,0,2.6-0.1,3.9-0.1c1.4,0,5.5,0.1,9.6,0.1l0.2-4.3h-1c-0.6,2.6-1.7,3.3-4.3,3.3c-2.8,0-2.7-1.4-2.7-3.7v-6.6
		c0-1.9,0-2.9,2.2-2.8v-0.8c-1.4,0-2.8,0.1-4.2,0.1c-1.2,0-2.4-0.1-3.6-0.1v0.8c2.2-0.1,2.1,1,2.1,2.8v7.7c0,1.9,0,2.9-2.1,2.9
		V108.7z M182.3,105c0,1.9,0.1,2.9-2.1,2.9v0.8c1.2,0,2.5-0.1,3.7-0.1c1.3,0,2.7,0.1,4,0.1v-0.8c-2.2,0-2.1-0.9-2.1-2.8v-7.7
		c0-1.9-0.1-2.9,2.1-2.9v-0.8c-1.3,0-2.7,0.1-4,0.1c-1.2,0-2.5-0.1-3.7-0.1v0.8c2.2,0,2.1,1,2.1,2.9V105z M211,93.7h-14.6l-0.1,4.3
		h1c0.4-2,1.2-3.4,3.4-3.2c1.4,0.1,1.4,0,1.4,1.7v8.5c0,2,0,2.9-2.3,2.9v0.8c1.3,0,2.7-0.1,4-0.1c1.3,0,2.7,0.1,4,0.1v-0.8
		c-2.3,0.1-2.3-0.8-2.3-2.9v-8.5c0-1.8-0.1-1.7,1.4-1.7c2,0,3.1,1.3,3.3,3.2h1L211,93.7z M229.1,102.6l3.8-6.5
		c0.5-0.8,0.9-1.5,1.9-1.6v-0.8c-0.9,0-1.8,0.1-2.7,0.1c-0.8,0-1.5-0.1-2.3-0.1v0.8c0.8,0,1.7,0.2,1.7,1.1c0,0.6-0.6,1.6-0.9,2.2
		l-2.2,3.7l-2.3-4.1c-0.2-0.4-0.8-1.4-0.8-1.9c0-0.9,1.1-0.9,1.7-1v-0.8c-1.3,0-2.6,0.1-3.9,0.1c-1.1,0-2.3-0.1-3.4-0.1v0.8
		c1.2,0.3,1.3,0.5,1.9,1.5l3.9,7v2c0,1.9,0,2.9-2.2,2.9v0.8c1.2,0,2.4-0.1,3.6-0.1c1.4,0,2.8,0.1,4.3,0.1v-0.8
		c-2.3,0.1-2.2-0.9-2.2-2.9V102.6z M265.5,94.9c-1.3-1-2.9-1.4-4.5-1.4c-4.6,0-7.7,3.5-7.7,8c0,4.6,3.1,7.5,7.7,7.5
		c1.4,0,2.3-0.3,3.6-0.8c1.4-0.5,1.9-0.6,3.4-0.8V105c0-1.2-0.1-1.9,1.4-1.9v-0.8h-6.7v0.8c1.5,0.2,1.9,0.5,1.9,1.9c0,2-1,2.8-3,2.8
		c-3.4,0-4.3-3.7-4.3-6.4c0-2.9,0.9-6.8,4.5-6.8c2.3,0,3.7,1.6,4.2,3.7h1l-0.2-4.7h-0.9L265.5,94.9z M288.9,105.1
		c0.5,0.7,1,1.4,1.5,2c0.5,0.5,0.8,0.7,1.5,0.8v0.8c-0.7,0-1.5-0.1-2.2-0.1c-0.7,0-1.5,0.1-2.2,0.1l-3.2-4.6c-0.7-1-1.7-2.2-2.4-2.1
		c-0.1,0-0.2,0-0.4,0v3c0,1.9,0,2.9,2.2,2.9v0.8c-1.3,0-2.6-0.1-3.9-0.1c-1.3,0-2.6,0.1-3.8,0.1v-0.8c2.2,0.1,2.1-1,2.1-2.9v-7.7
		c0-1.9,0-2.9-2.1-2.8v-0.8c1.3,0,2.6,0.1,3.8,0.1c1.2,0,2.4-0.1,3.7-0.1c1.1,0,2.7,0.1,3.7,0.5c1.5,0.6,2.2,1.8,2.2,3.4
		c0,2-1.7,3.3-3.6,3.6L288.9,105.1z M282.3,101c2.2,0,3.3-0.8,3.3-3.1c0-2.1-0.9-3.2-3-3.2c-0.2,0-1,0-1.1,0.3
		c-0.1,0.2-0.1,1.8-0.1,2.1v3.9H282.3z M305.3,94.5c-3.6,0-4.4,3.7-4.4,6.6c0,2.9,0.8,6.8,4.4,6.8c3.7,0,4.6-3.4,4.6-6.5
		C309.9,98.3,309.1,94.5,305.3,94.5 M305.3,108.9c-4.6,0-8.4-2.9-8.4-7.7c0-4.8,3.9-7.7,8.4-7.7c4.6,0,8.4,2.9,8.4,7.7
		C313.8,106,309.9,108.9,305.3,108.9 M318.3,94.5c2.2,0,2.1,1,2.1,2.9v5.4c0,4.7,2.6,6.1,6.6,6.1c4.1,0,6.3-2,6.3-6.1v-4.2
		c0-0.9-0.1-2.3,0.3-3.1c0.3-0.7,1-0.8,1.7-0.9v-0.8c-0.9,0-1.8,0.1-2.7,0.1c-0.9,0-1.7-0.1-2.6-0.1v0.8c0.7,0.1,1.4,0.3,1.7,0.9
		c0.4,0.7,0.4,2.3,0.4,3.1v4.7c0,2.7-1.5,4.2-4.3,4.2c-3.2,0-3.9-1.7-3.9-4.6v-5.5c0-1.9,0-3,2.2-2.9v-0.8c-1.4,0-2.8,0.1-4.2,0.1
		c-1.2,0-2.4-0.1-3.6-0.1V94.5z M347.9,100.8c2.2,0,3.5-0.6,3.5-3.1c0-1.9-0.9-3-2.8-3c-1.2,0.1-1.2,0-1.2,1.1v4.9H347.9z
		 M343.9,97.4c0-1.9,0-3-2.1-2.9v-0.8c1.3,0,2.5,0,3.8,0.1c1.2,0,2.4-0.1,3.6-0.1c2.7,0,6,0.7,6,4.1c0,3.1-3.2,4-5.7,4h-2v3.2
		c0,2,0,2.9,2.3,2.9v0.8c-1.4,0-2.8-0.1-4.1-0.1c-1.2,0-2.4,0.1-3.7,0.1v-0.8c2.2,0.1,2.1-1,2.1-2.9V97.4z M356.7,112.5
		c1.9-0.8,3.7-2.4,3.7-4.6c0-1.3-0.6-2.7-2.2-2.7c-1.1,0-1.8,0.7-1.8,1.8c0,0.9,0.7,1.8,1.7,1.8c0.4,0,0.7-0.2,1-0.5
		c-0.1,1.9-1.3,2.6-2.7,3.5L356.7,112.5z M377.2,105c0,1.9,0.1,2.9-2.1,2.9v0.8c1.2,0,2.5-0.1,3.7-0.1c1.3,0,2.7,0.1,4,0.1v-0.8
		c-2.1,0-2.1-0.9-2.1-2.8v-7.7c0-1.9-0.1-2.9,2.1-2.9v-0.8c-1.3,0-2.7,0.1-4,0.1c-1.2,0-2.5-0.1-3.7-0.1v0.8c2.2,0,2.1,1,2.1,2.9
		V105z M403.8,109h1.1V98.1c0-0.8,0-2.1,0.3-2.8c0.3-0.6,1-0.7,1.7-0.8v-0.8c-0.9,0-1.8,0.1-2.7,0.1c-0.9,0-1.7-0.1-2.6-0.1v0.8
		c2.1,0.1,2.1,1.7,2.1,3.5v6l-8.9-10.3c-0.9,0-1.7,0.1-2.6,0.1c-0.7,0-1.4-0.1-2.2-0.1v0.8c1.2,0.1,1.5,0.5,2.3,1.5v9.1
		c0,1.6-0.1,2.5-2,2.7v0.8c0.9,0,1.7-0.1,2.6-0.1c0.9,0,1.8,0.1,2.7,0.1v-0.8c-2.2-0.1-2.2-1.9-2.2-3.6v-7L403.8,109z M425.6,108.6
		h0.9v-5.1h-0.9c-0.4,2.4-1.8,4.4-4.4,4.3c-3.6,0-4.7-3.5-4.7-6.6c0-2.9,1-6.6,4.5-6.6c2.3,0,3.8,1.6,4.3,3.8h1l-0.2-4.8h-1
		l-0.3,1.3c-1.3-1-2.7-1.4-4.3-1.4c-4.6,0-7.9,3.3-7.9,8c0,4.6,3.1,7.4,7.6,7.4c1.8,0,3.6-0.4,4.9-1.7L425.6,108.6z M432.6,108.8
		c1,0,1.8-0.9,1.8-1.9c0-1-0.8-1.8-1.8-1.8c-1,0-1.8,0.8-1.8,1.8C430.8,108,431.6,108.8,432.6,108.8"/>
	<g>
		<polyline class="st1" points="10.5,19.3 40,19.3 10.5,28.9 		"/>
		<polyline class="st1" points="10.5,81.5 19.7,81.5 10.5,53.2 		"/>
		<polyline class="st1" points="72.7,19.3 63,19.3 72.7,49.1 		"/>
		<polyline class="st1" points="72.7,72.2 44,81.5 72.7,81.5 		"/>
	</g>
</g>
</svg>
