<?xml version="1.0" encoding="utf-8"?>
<!-- Generator: Adobe Illustrator 23.0.3, SVG Export Plug-In . SVG Version: 6.00 Build 0)  -->
<svg version="1.1" id="Layer_1" xmlns="http://www.w3.org/2000/svg" xmlns:xlink="http://www.w3.org/1999/xlink" x="0px" y="0px"
	 viewBox="0 0 485.4 102.5" style="enable-background:new 0 0 485.4 102.5;" xml:space="preserve">
<style type="text/css">
	.st0{fill:#FFFFFF;}
	.st1{fill:#00205C;}
	.st2{fill:#B30838;}
	.st3{fill:none;stroke:#00205C;stroke-width:1.298;stroke-miterlimit:1;}
</style>
<rect x="8.4" y="12.1" class="st0" width="80.5" height="46.9"/>
<path class="st1" d="M62.3,32.4l3.5-9l3.5,9l9.2,0l-7,5.7l2.6,9l-8.2-5.3l-8.2,5.3l3-9l-7.4-5.7L62.3,32.4z M56.1,37.1l-7,5.7l2.6,9
	l-8.2-5.3l-8.2,5.3l3-9l-7.4-5.7l9.1,0l3.5-9l3.5,9L56.1,37.1z M33.7,21.1l-7,5.7l2.6,9L21,30.5l-8.2,5.3l3-9l-7.4-5.7l9.1,0l3.5-9
	l3.5,9L33.7,21.1z M46.9,16.3l9.2,0l-7,5.7l2.6,9l-8.2-5.3l-8.2,5.3l3-9l-7.4-5.7l9.1,0l1.6-4.1H8.4l0,29.8l9.1,0l3.5-9l3.5,9l9.2,0
	l-7,5.7l1.8,6.3c-3.7-1.8-8.4-4.2-12.6-6.3l-7.4-5.6l0,4v35.3c0,0,4.7,3.4,7.2,5.2c0.8,0.6,2,1.6,2.9,0.9c2-1.7,6.5-7.8,9-12.7
	c1.1-2.2,2.5-4.8,3.6-7.7c0.4-1,1-3,1.4-4.2c0.3-1.2,0.6-2.4,0.8-3.4l3,1.6l16.2-4.3l13.4-3l5.6,4l9.3,2l24.2-15l3-9.7l32.5-7.2
	l10.9-15.5l-106.1,0L46.9,16.3z"/>
<path class="st2" d="M82.9,71.8c-3-7.5-4-15.5-2.6-16.2c2.1-0.7,4.5,1.2,6.5,3.9c2.5,3.5,4.3,8,4.3,8s1.5,4.7,2.3,9.6
	c0.8,5,0.2,10.2-1.7,10.5C89.9,87.4,85.4,79.1,82.9,71.8"/>
<path class="st0" d="M80.9,58.4c-3.2,0.6-4.9-0.5-7.3-1.1c-3.2-0.6-3.1-1.1-4.8-1.4c-2-0.9-7-0.9-8.1-0.3c-3.4,1.6-5.8,0.8-8.7,1.7
	c-1,0.6-2.6,3.3-3.7,4.3c-1.2,0.6-2.9,1.9-3.7,2.4c-0.1,0.8,0.9,3.3,2.5,3.5c1.8,0.5,3.8,0.4,5.4-0.1c1.6-0.3,2.9-1.8,3.7-2.5
	c1.1,0.1,3.9-0.7,5.2-0.4c1,0.5,5,4,5,4l10.2,8.9l2.5,2.7c0,0,7.2-5.3,9.4-5.4C89.4,73.3,86.1,62.2,80.9,58.4"/>
<path class="st3" d="M80.9,58.4c-3.2,0.6-4.9-0.5-7.3-1.1c-3.2-0.6-3.1-1.1-4.8-1.4c-2-0.9-7-0.9-8.1-0.3c-3.4,1.6-5.8,0.8-8.7,1.7
	c-1,0.6-2.6,3.3-3.7,4.3c-1.2,0.6-2.9,1.9-3.7,2.4c-0.1,0.8,0.9,3.3,2.5,3.5c1.8,0.5,3.8,0.4,5.4-0.1c1.6-0.3,2.9-1.8,3.7-2.5
	c1.1,0.1,3.9-0.7,5.2-0.4c1,0.5,5,4,5,4l10.2,8.9l2.5,2.7c0,0,7.2-5.3,9.4-5.4C89.4,73.3,86.1,62.2,80.9,58.4z"/>
<path class="st0" d="M36.1,58c1.9,0.8,5.9,0.7,9.1-0.4c1.8-0.6,4.7-1.8,6.8-2.8c2.1-1,3.6-2,5.8-1.7c2.6,0.3,4.3,0,6.3-0.2
	c2.7-0.6,4.5,1.4,5.3,2.3c0.9,1,4,2.1,4,2.1s-7.4-1.3-8.8-1.4c-1.5-0.1-3.1,0.3-4.7,0.9c-1.7,0.6-4.2,0.9-5.9,1
	c-2.1-0.1-3.2,2.4-4.8,4.1c-0.8,0.9-2.2,1.3-3.2,2.1c-0.3,0.2-0.4,0.4-0.4,0.6c0.4,1.7,1.3,2.3,2.1,2.5c1.1,0.4,2.9,0.4,5-0.3
	c1.8-0.6,2.5-1.5,3.3-2.5c0.2-0.1,0.8,0,1.2,0c2.5,0,3.2-1,5.5,0.2c2.1,1.3,3.6,2.9,5.1,4.1c1.5,1.3,4.4,4.1,6.5,6
	c1.6,1.4,4.7,4.4,5.6,5.9c1.2,2.5-2.6,5.5-5,3.6c-1.3-1-8.5-7.6-8.5-7.6s6.1,5.5,7.2,6.5c1.7,1.8-1.5,6.2-4.8,4.1
	c-2.4-2-6.7-5.6-6.7-5.6s4.2,3.6,5.8,4.9c1.3,1.6-1.3,5.4-4,4c-2.5-1.8-5.8-4.4-5.8-4.4s3.2,2.4,4.8,3.7c1.6,1.8-0.8,4.5-3.9,3.1
	c-1.7-0.7-4.2-3.2-8.5-4.9c-2.7-0.7-9.5-4.7-14-9.1c-3.1-2.5-4.4-2.4-6.4-3.5C33.1,71.1,36.1,61.2,36.1,58"/>
<path class="st3" d="M36.1,58c1.9,0.8,5.9,0.7,9.1-0.4c1.8-0.6,4.7-1.8,6.8-2.8c2.1-1,3.6-2,5.8-1.7c2.6,0.3,4.3,0,6.3-0.2
	c2.7-0.6,4.5,1.4,5.3,2.3c0.9,1,4,2.1,4,2.1s-7.4-1.3-8.8-1.4c-1.5-0.1-3.1,0.3-4.7,0.9c-1.7,0.6-4.2,0.9-5.9,1
	c-2.1-0.1-3.2,2.4-4.8,4.1c-0.8,0.9-2.2,1.3-3.2,2.1c-0.3,0.2-0.4,0.4-0.4,0.6c0.4,1.7,1.3,2.3,2.1,2.5c1.1,0.4,2.9,0.4,5-0.3
	c1.8-0.6,2.5-1.5,3.3-2.5c0.2-0.1,0.8,0,1.2,0c2.5,0,3.2-1,5.5,0.2c2.1,1.3,3.6,2.9,5.1,4.1c1.5,1.3,4.4,4.1,6.5,6
	c1.6,1.4,4.7,4.4,5.6,5.9c1.2,2.5-2.6,5.5-5,3.6c-1.3-1-8.5-7.6-8.5-7.6s6.1,5.5,7.2,6.5c1.7,1.8-1.5,6.2-4.8,4.1
	c-2.4-2-6.7-5.6-6.7-5.6s4.2,3.6,5.8,4.9c1.3,1.6-1.3,5.4-4,4c-2.5-1.8-5.8-4.4-5.8-4.4s3.2,2.4,4.8,3.7c1.6,1.8-0.8,4.5-3.9,3.1
	c-1.7-0.7-4.2-3.2-8.5-4.9c-2.7-0.7-9.5-4.7-14-9.1c-3.1-2.5-4.4-2.4-6.4-3.5C33.1,71.1,36.1,61.2,36.1,58z"/>
<path class="st0" d="M29.5,68.4c2.2-5,3.2-10.7,3.3-12.3c0.6,0.2,3,1.4,3.6,1.6c0.2,2.2-1.2,8.2-3.1,12.7c-1.8,4-4,8.4-5.3,10
	c-0.3,0.4-0.8,0.3-1,0.2c-0.9-0.4-2.7-1.5-3.3-1.9C24.8,77.5,27.3,73.4,29.5,68.4"/>
<path class="st3" d="M29.5,68.4c2.2-5,3.2-10.7,3.3-12.3c0.6,0.2,3,1.4,3.6,1.6c0.2,2.2-1.2,8.2-3.1,12.7c-1.8,4-4,8.4-5.3,10
	c-0.3,0.4-0.8,0.3-1,0.2c-0.9-0.4-2.7-1.5-3.3-1.9C24.8,77.5,27.3,73.4,29.5,68.4z"/>
<path class="st0" d="M79.8,58.5c1.5,0.3,4.9,5.2,7,10.7c1.6,4.9,2.4,8.6,2.7,10.8c0.1,0.6,0.1,1.6,0.7,1.4c1.2-0.4,2.5-1.2,3.3-1.5
	c2.5-2.4-4.9-23.7-9.2-23.4C83.4,56.9,80.5,58.1,79.8,58.5 M66.7,67.7c1.8,1.7,3.2,2.9,4.3,3.7c2.1,1.2,5.6,1.1,7.2-0.7"/>
<path class="st3" d="M79.8,58.5c1.5,0.3,4.9,5.2,7,10.7c1.6,4.9,2.4,8.6,2.7,10.8c0.1,0.6,0.1,1.6,0.7,1.4c1.2-0.4,2.5-1.2,3.3-1.5
	c2.5-2.4-4.9-23.7-9.2-23.4C83.4,56.9,80.5,58.1,79.8,58.5z M66.7,67.7c1.8,1.7,3.2,2.9,4.3,3.7c2.1,1.2,5.6,1.1,7.2-0.7"/>
<path class="st0" d="M43,80.2c0.9-1.7-3.2-4.4-4.3-3.1c-1.2,1.1-3.2,4.1-0.9,5.8C40.4,85,42.2,81.2,43,80.2 M47.4,83.5
	c1.2-1.7-2.8-5-4.6-2.9C42,81.7,39.2,84,42,86.1c1.2,0.8,2.1,0.9,2.9,0.5C45.9,85.7,46.8,84.4,47.4,83.5 M51.3,87.6
	c0.3-0.4,1-1.1,1.1-1.8c0.3-1.5-3.2-4-4.7-2.3c-1.1,1.4-3.7,3.8-1,5.6C49.1,90.7,50.1,89.2,51.3,87.6 M56.1,88.3
	c-0.2-1.1-2.2-3-3.8-2c-1.2,1.3-1.7,2.1-2.1,3.1c-0.2,0.8,0,2.1,2,2.3c0.9,0.1,1.7-0.2,2.7-1C56,89.9,56.4,89.1,56.1,88.3"/>
<path class="st3" d="M43,80.2c0.9-1.7-3.2-4.4-4.3-3.1c-1.2,1.1-3.2,4.1-0.9,5.8C40.4,85,42.2,81.2,43,80.2z M47.4,83.5
	c1.2-1.7-2.8-5-4.6-2.9C42,81.7,39.2,84,42,86.1c1.2,0.8,2.1,0.9,2.9,0.5C45.9,85.7,46.8,84.4,47.4,83.5z M51.3,87.6
	c0.3-0.4,1-1.1,1.1-1.8c0.3-1.5-3.2-4-4.7-2.3c-1.1,1.4-3.7,3.8-1,5.6C49.1,90.7,50.1,89.2,51.3,87.6z M56.1,88.3
	c-0.2-1.1-2.2-3-3.8-2c-1.2,1.3-1.7,2.1-2.1,3.1c-0.2,0.8,0,2.1,2,2.3c0.9,0.1,1.7-0.2,2.7-1C56,89.9,56.4,89.1,56.1,88.3z"/>
<path class="st2" d="M140.6,39.3c0,2.9-0.8,3.1-3.6,3.1c-2.2,0-12.4,0-20.6,0c-5.9,0.1-10.1,1.6-11.2,6.8l0-1.9c0.2-2,0.5-3,1.8-4.5
	c0.7-0.7,2.5-3,9.4-3c6.5,0,11.7,0,18.4,0c3.6,0,5.6,0,5.8-2.9C140.6,37.9,140.6,38.8,140.6,39.3 M105.4,65.2
	c0.2-2.7,0.1-5.2,1.9-7.3c0.4-0.4,0.9-0.9,1.8-1.5c1.2-0.8,3.3-1.6,7.3-1.5c6.5,0,11.6,0,18.4,0c3.2,0,5.3,0.4,5.8-2.1
	c0,0.7,0,1.3,0,1.6c0,2.9-0.8,3.2-3.7,3.2c-2.2,0-12.4,0-20.6,0C110,57.6,106.3,59.6,105.4,65.2 M214.7,12.1c-3,0-56.8,0-63.3,0
	c-7.6,0-10.7,2.4-10.7,8.4c0,1.6,0,2.9,0,3.6c0,2.9-0.8,3.2-3.7,3.2c-2.2,0-12.4,0-20.6,0c-7,0-11.9,3.2-11.6,10.1
	c0,1.5,0,4.2,0,7.1c-3,1.4-22.2,10.3-24.4,11.3c9.4,2.7,14.8,25.5,11.4,32c1.9-1,13.1-6.4,13.1-6.4l0-0.1c1.1-0.6-0.3-5.2,2.2-8.1
	c0.7-0.7,2.3-3,9.2-3c6.5,0,11.7,0,18.5,0c3.8,0,5.9,0.1,5.8-3.2c0-1.5,0-2.4,0-5.2c0.3-6.7,7.3-6.7,11.1-6.7c3.3,0,15.2,0,18.2,0
	c1.3-2.1,6.4-10.2,7.9-12.5c-3,0-20,0-26.6,0c-6.9,0-10.1,2-10.6,6.9c0-0.8,0-1.6,0-2.9c0.3-6.7,7-6.7,10.9-6.7c3.3,0,33.6,0,36.6,0
	c1.4-2.1,6.6-10.3,8-12.5c-2.8,0-38.2,0-44.9,0c-7.2,0-10.4,2.2-10.7,7.7c0-0.9,0-1.9,0-3.6c0.3-6.7,7.3-6.7,11.2-6.7
	c3.3,0,51,0,54.9,0C208,22.6,213.2,14.6,214.7,12.1"/>
<polygon class="st1" points="180.2,42.4 183.6,42.4 183.6,42.9 182.2,42.9 182.2,46.6 181.7,46.6 181.7,42.9 180.2,42.9 "/>
<path class="st1" d="M187.6,46.6v-2.5c0-0.1,0-0.7,0-1h0l-1.2,3.5h-0.6l-1.2-3.5h0c0,0.4,0,0.9,0,1v2.5h-0.5v-4.2h0.8l1.2,3.5h0
	l1.2-3.5h0.8v4.2H187.6z"/>
<g>
	<path class="st1" d="M265.4,87.3c0,3.7,3.2,6.6,6.8,6.6c3.7,0,6.8-3,6.8-6.6c0-3.7-3.2-6.8-6.8-6.8
		C268.6,80.5,265.4,83.6,265.4,87.3"/>
	<path class="st1" d="M388.3,87.3c0-3.7-3.2-6.8-6.9-6.8c-3.7,0-6.8,3.2-6.8,6.8c0,3.7,3.2,6.6,6.8,6.6
		C385.2,94,388.3,91,388.3,87.3"/>
	<path class="st1" d="M480.2,87.3c0-3.7-3.2-6.8-6.8-6.8c-3.7,0-6.8,3.2-6.8,6.8c0,3.7,3.2,6.6,6.8,6.6C477,94,480.2,91,480.2,87.3"
		/>
	<path class="st1" d="M228.9,94c-0.4,0-0.4-0.7,0-0.7c1.4,0,4.4-3.5,4.4-8.5V21.3c0-5-3-8.5-4.4-8.5c-0.4,0-0.4-0.7,0-0.7h52.2
		l1.3,14.9c0.1,0.5-0.3,0.5-0.6,0.2c-3.6-3.2-11.2-4.4-21-4.4c-4.5,0-6.5,0.3-8.5,0.6v22.2h12.1c5,0,8.5-3,8.5-4.4
		c0-0.4,0.7-0.4,0.7,0v19.2c-0.7,0.4-0.7,0.4-0.7,0c0-1.4-3.5-4.4-8.5-4.4h-12.1v28.6c0,5,3,8.5,4.4,8.5c0.4,0,0.4,0.7,0,0.7H228.9z
		"/>
	<path class="st1" d="M312.8,84.7c0,5.1,3,8.6,4.1,8.6c0.6,0,0.6,0.6,0,0.6h-21.6c-0.5,0-0.5-0.6,0-0.6c1.6,0,4.7-3.5,4.7-8.6V21.3
		c0-4.8-3.1-8.6-4.7-8.6c-0.5,0-0.5-0.6,0-0.6h23.4l36.6,47.5V21.3c0-4.8-3.2-8.6-4.3-8.6c-0.4,0-0.4-0.6,0-0.6h21.3
		c0.4,0,0.4,0.6,0,0.6c-1.6,0-4.8,3.8-4.8,8.6V94h-10.2l-44.5-58.3V84.7z"/>
	<path class="st1" d="M398,94c-0.4,0-0.4-0.7,0-0.7c1.4,0,4.4-3.5,4.4-8.5V21.3c0-5-3-8.5-4.4-8.5c-0.4,0-0.4-0.7,0-0.7
		c2.8,0,26.4,0,34.9,0c6.4,0,27.1,0.8,27.1,18.6c0,9.1-7.1,15.3-14.1,16.7c6.5,0.5,20.4,5.6,20.4,21.6c0,19.2-18.1,25-28.1,25
		C429.6,94,400.7,94,398,94z M426.8,45.6c4.5,0,13-1.2,13-11.8c0-10.5-7.8-10.9-12.4-10.9c-3.1,0-5.1,0.1-6,0.6v21.7
		C423.1,45.8,424.3,45.6,426.8,45.6z M428,83.2c7.2,0,18.7-0.1,18.7-14.1c0-9.7-7-13.3-17.8-13.3c-3.4,0-5.6,0-7.5,0.6v26.1
		C423.3,83,425.4,83.2,428,83.2z"/>
</g>
</svg>
