<?xml version="1.0" encoding="utf-8"?>
<!-- Generator: Adobe Illustrator 23.0.2, SVG Export Plug-In . SVG Version: 6.00 Build 0)  -->
<svg version="1.1" xmlns="http://www.w3.org/2000/svg" xmlns:xlink="http://www.w3.org/1999/xlink" x="0px" y="0px"
	 viewBox="0 0 168.4 32.5" style="enable-background:new 0 0 168.4 32.5;" xml:space="preserve">
<style type="text/css">
	.st0{display:none;}
	.st1{display:inline;fill:none;}
	.st2{fill:#00A2E2;}
	.st3{fill:#FFFFFF;}
</style>
<g id="Artboard_Box" class="st0">
	<rect x="-16" y="-31.8" class="st1" width="194.4" height="72"/>
</g>
<g id="Logo_1_">
	<g>
		<g>
			<g>
				<g>
					<g>
						<path d="M27.7,6.5h-2.9c0.1,1.5,0.1,1.7,0.1,2.3c0,0.5,0,3,0,3.5v1.3l0,3.3c0,0.8-0.1,3.2-0.2,3.6h2.9
							c-0.2-1.5-0.2-3.2-0.2-4.8C27.4,13.5,27.4,8.6,27.7,6.5z"/>
					</g>
					<g>
						<path d="M31,6.5h2.9c-0.2,1.5-0.2,5-0.2,7.1c0,3,0,5.2,0.2,6.9H31c0.2-2.4,0.2-5.8,0.2-9.3C31.2,9.9,31.2,8.5,31,6.5z"/>
					</g>
					<g>
						<path d="M44.3,6.3c1.7,0,3.1,0.3,4.8,1l-0.6,2h-0.2c-0.2-0.5-1-1.9-3.9-1.9c-3.4,0-5.2,2.2-5.2,6.1c0,1.5,0.3,3,1.2,4.3
							c0.7,1,1.8,1.9,3.7,1.9c1,0,2.1-0.2,2.9-0.7c0.1-1.4,0.1-1.6,0.1-1.9c0-1-0.1-2-0.1-3h2.7c-0.1,0.7-0.2,2.9-0.2,3.4
							c0,0.8,0,1.3,0.1,1.9c-1.7,0.9-4,1.4-5.9,1.4c-4,0-7.3-2.5-7.3-7.1C36.3,9.6,38.8,6.3,44.3,6.3z"/>
					</g>
					<g>
						<path d="M61.9,13.6c-1.1,0-2.2-0.1-3.3-0.1c-1.2,0-2.3,0-3.5,0.1v2c0,2.6,0.1,3.5,0.2,4.8h-2.9c0.2-3.1,0.2-6.2,0.2-9.3
							c0-1.6-0.1-3.1-0.2-4.7h2.9c-0.1,1.1-0.2,2-0.2,5.8c1,0,2.1,0.1,3.1,0.1c1.2,0,2.5,0,3.7-0.1c0-0.5,0-3,0-3.5
							c0-0.6,0-0.8-0.1-2.3h2.9c-0.3,2.1-0.3,7.1-0.3,9.2c0,1.6,0,3.3,0.2,4.8h-2.9c0-0.4,0.2-2.8,0.2-3.6L61.9,13.6z"/>
					</g>
					<g>
						<path d="M70.6,7.8c1.3,2.8,1.9,3.8,3.9,7.3l1.1,2l0.8-1.3c1.9-3.4,2.8-5.1,4.9-9.2H82l0.2,1.7c0.2,2.4,0.5,4.6,0.8,7.1
							c0.2,1.2,0.6,4.2,0.8,5.2H81l-0.1-0.8c0-0.4-0.1-2.2-0.2-2.6c-0.1-0.9-0.6-5.1-0.7-5.9c-1.4,2.3-3.6,6.5-4.9,9.3h-0.8
							c-0.8-1.5-1.3-2.4-2.8-5.4c-0.3-0.6-1.8-3.2-2-3.7c-0.4,2.9-0.7,6-0.9,9.1h-1.8l0.1-0.6c0.5-2.5,1.7-11,2-13.4h0.9L70.6,7.8z"
							/>
					</g>
					<g>
						<path d="M94,18.2l-0.9-2.2c-0.9,0-1.7-0.1-2.6-0.1c-0.8,0-1.6,0-2.4,0.1c-0.7,1.6-1.3,3.3-1.6,4.4h-1.9l2.4-5.3
							c2.1-4.6,3.2-7.3,3.7-8.9H92c1,2.8,2.2,5.6,2.9,7.4c0.8,1.8,2.1,4.9,3,6.8h-3.1L94,18.2z M90.7,9.8l-2.1,5
							c0.7,0,1.4,0.1,2.1,0.1c0.6,0,1.2,0,1.9-0.1L90.7,9.8z"/>
					</g>
					<g>
						<path d="M105.8,14.4c0.3,0.4,0.8,1.1,1.1,1.5c1.6,2.3,2.2,3,3.4,4.6h-3.5c-0.3-0.5-0.8-1.2-1.1-1.7c-1-1.6-2.3-3.4-3.4-5h-0.5
							v2.9c0,0.6,0.1,3.2,0.1,3.8h-2.8c0.2-4,0.2-4.5,0.2-8.4c0-2.7,0-3-0.1-5.6h5.4c1.3,0,2.3,0.2,3.2,1c0.6,0.6,0.9,1.4,0.9,2.3
							c0,2.3-1.7,3.4-3.5,3.8L105.8,14.4z M101.9,12.9c0.4,0,0.9,0.1,1.4,0.1c2,0,2.8-1.5,2.8-2.8c0-0.9-0.1-1.6-0.9-2.1
							c-0.6-0.4-1.2-0.5-1.9-0.5c-0.4,0-1.1,0.1-1.4,0.1V12.9z"/>
					</g>
					<g>
						<path d="M112,6.5h2.9c-0.1,1-0.1,2.5-0.2,3.2c0,1,0,2.2,0,3.2c1.5-1.3,2.3-2.2,3.5-3.4c0.9-1,2-2.2,2.6-3h2.3
							c-1,0.9-2.5,2.2-3.3,3.1c-1,1-1.3,1.3-2.8,2.9l1.1,1.4c1,1.4,4,5.2,5.4,6.5h-3.5c-1.4-2-3-4.3-5.2-6.7c0,2.2,0,4.5,0.2,6.7
							H112c0.2-3.4,0.2-3.7,0.2-9.3C112.1,8.9,112.1,8.5,112,6.5z"/>
					</g>
					<g>
						<g>
							<path d="M15.4,6.5c0.1,1.6,0.2,3.1,0.2,4.7c0,0.1,0,0.2,0,0.4c0.8,0.2,1.6,0.3,2.5,0.4c0-3.6,0.1-4.4,0.2-5.5H15.4z"/>
						</g>
						<g>
							<path d="M18.1,13.9c-0.9-0.1-1.7-0.2-2.5-0.3c0,2.3-0.1,4.6-0.2,6.9h2.9c-0.1-1.3-0.2-2.2-0.2-4.8V13.9z"/>
						</g>
					</g>
				</g>
			</g>
			<g>
				<path class="st2" d="M61.6,1.7C52.3,1.1,41.8,1,32.2,1.4c-8.9,0.4-16.5,1.1-22.1,2.2c-5.6,1.1-8.7,2.4-9,4
					c-0.2,0.9,0.5,1.8,2.2,2.6c3.5,1.7,11.2,3.2,21.6,4.1l0,0l0-0.6v-0.2c-8.2-0.9-14.1-2.1-17-3.6C7,9.4,5.9,8.7,6.1,7.9
					c0.5-2.2,10.2-4.9,30.5-5.7c8.2-0.3,16.8-0.3,25,0.1c0.2,0,0.3-0.1,0.3-0.3C61.9,1.9,61.8,1.7,61.6,1.7z"/>
			</g>
		</g>
		<g>
			<g>
				<path class="st3" d="M145.1,10.8c0,3.1-2.5,5.6-5.6,5.6s-5.6-2.5-5.6-5.6c0-3.1,2.5-5.6,5.6-5.6S145.1,7.7,145.1,10.8
					L145.1,10.8z"/>
				<path class="st3" d="M165.8,3.1l-0.1-0.2l-0.3,0.1c-1.5,0.5-2.3,0.7-3.2,0.8c-0.7,0.1-1.4,0.2-2.5,0.2c-1.1,0-1.8-0.1-2.5-0.2
					c-0.8-0.1-1.7-0.3-3.2-0.8l-0.3-0.1l-0.1,0.2c-0.9,2.3-0.9,5.4,0.1,8.4c1.2,3.5,2.9,5.8,5.5,7.5l0.4,0.3l0.4-0.3
					c2.5-1.7,4.3-4.1,5.4-7.5C166.7,8.5,166.8,5.4,165.8,3.1L165.8,3.1z"/>
				<path class="st2" d="M139.4,12.2C139.4,12.2,139.4,12.2,139.4,12.2l-1.9,2.8c0.6,0.3,1.2,0.4,1.9,0.4c0.7,0,1.3-0.1,1.9-0.4
					L139.4,12.2C139.5,12.2,139.5,12.2,139.4,12.2"/>
				<path class="st2" d="M137.7,10L135,9.7c-0.1,0.3-0.1,0.7-0.1,1.1c0,1.1,0.4,2.2,1.1,3l1.9-3.6C137.9,10.1,137.9,10,137.7,10"/>
				<path class="st2" d="M138.2,6.4c-0.9,0.3-1.6,0.8-2.2,1.4h2.4c0,0,0.1-0.1,0-0.1C138.1,7.4,137.9,6.9,138.2,6.4"/>
				<path class="st2" d="M142.9,7.8c-0.6-0.7-1.3-1.2-2.2-1.4c0.3,0.4,0.1,1-0.2,1.3c0,0,0,0.1,0,0.1H142.9L142.9,7.8z"/>
				<path class="st2" d="M141.2,10c-0.2,0-0.2,0.1-0.2,0.2l1.9,3.6c0.7-0.8,1.1-1.8,1.1-3c0-0.4,0-0.7-0.1-1.1L141.2,10L141.2,10z"
					/>
				<path class="st2" d="M142.7,15L142.7,15l-2.4-4.6c-0.2-0.4-0.1-1,0.6-1.1l3.6-0.3l0,0l0,0c0.2,0.6,0.3,1.2,0.3,1.9
					C144.8,12.5,144,14,142.7,15 M142.4,15.3L142.4,15.3c-0.8,0.6-1.8,0.9-2.9,0.9c-1.1,0-2.1-0.3-2.9-0.9l0,0v0c0,0,0,0,0,0
					l2.6-3.9c0.2-0.3,0.5-0.2,0.7,0L142.4,15.3C142.4,15.3,142.4,15.3,142.4,15.3L142.4,15.3L142.4,15.3z M134.1,10.8
					c0-0.7,0.1-1.3,0.3-1.9l0,0l0,0l3.6,0.3c0.7,0.1,0.7,0.7,0.6,1.1l-2.4,4.6l0,0C134.9,14,134.1,12.5,134.1,10.8 M139.4,5.5
					c2.1,0,4,1.3,4.8,3.1h-3.8c-0.5,0-0.8-0.3-0.8-0.6c0-0.3,0-0.4,0.3-0.7c0.3-0.4,0.1-1.1-0.5-1.1c-0.6,0-0.8,0.7-0.5,1.1
					c0.3,0.3,0.3,0.4,0.3,0.7c0,0.3-0.2,0.6-0.8,0.6h-3.8C135.5,6.7,137.3,5.5,139.4,5.5 M143.7,6.5V1.1h-8.6v5.4h-5.4v8.6h5.4v5.4
					h8.6v-5.4h5.4V6.5H143.7L143.7,6.5z M147,20.4c-0.5,0-0.9-0.4-0.9-0.9c0-0.5,0.4-0.9,0.9-0.9c0.5,0,0.9,0.4,0.9,0.9
					C147.9,20,147.5,20.4,147,20.4 M147,18.4c-0.6,0-1.1,0.5-1.1,1.1c0,0.6,0.5,1.1,1.1,1.1c0.6,0,1.1-0.5,1.1-1.1
					C148,18.9,147.5,18.4,147,18.4 M146.9,19.4h-0.2V19h0.3c0.1,0,0.3,0,0.3,0.2C147.3,19.4,147.1,19.4,146.9,19.4 M147.5,19.2
					c0-0.2-0.1-0.3-0.4-0.3h-0.5v1.2h0.2v-0.5h0.3l0.3,0.5h0.2l-0.4-0.5C147.3,19.5,147.5,19.5,147.5,19.2"/>
				<path class="st2" d="M165.5,11.4c-1,3-2.6,5.7-5.6,7.5c0,0,0,0,0,0h0l0,0c-3-1.9-4.6-4.5-5.6-7.5c-0.9-2.7-1.1-5.8-0.1-8.2
					c1.5,0.5,2.4,0.7,3.2,0.8c0.8,0.1,1.4,0.2,2.6,0.2h0c1.1,0,1.8-0.1,2.6-0.2c0.8-0.1,1.7-0.3,3.2-0.8
					C166.6,5.6,166.4,8.7,165.5,11.4 M166.4,1.1c-2.1,1.1-4.2,1.6-6.6,1.6c-2.4,0-4.5-0.6-6.6-1.6c-1.4,2.7-1.6,7.1-0.4,10.7
					c1.1,3.5,3.4,6.7,7,8.7c3.7-2,5.9-5.2,7-8.7C168,8.2,167.8,3.8,166.4,1.1"/>
				<path class="st2" d="M165.3,20.4c-0.5,0-0.9-0.4-0.9-0.9c0-0.5,0.4-0.9,0.9-0.9c0.5,0,0.9,0.4,0.9,0.9
					C166.2,20,165.8,20.4,165.3,20.4 M165.3,18.5c-0.6,0-1.1,0.5-1.1,1.1c0,0.6,0.5,1.1,1.1,1.1c0.6,0,1.1-0.5,1.1-1.1
					C166.3,18.9,165.8,18.5,165.3,18.5"/>
				<path class="st2" d="M165.2,19.4H165v-0.4h0.3c0.1,0,0.3,0,0.3,0.2C165.6,19.5,165.4,19.4,165.2,19.4 M165.8,19.2
					c0-0.2-0.1-0.3-0.4-0.3h-0.5v1.2h0.2v-0.5h0.3l0.3,0.5h0.2l-0.4-0.5C165.6,19.6,165.8,19.5,165.8,19.2"/>
				<path class="st2" d="M158.8,6.4c0.1,0.1,0.1,0.2,0.2,0.2c0.1,0,0.1-0.1,0.2-0.1c0,0,0.1,0,0.1,0c-0.2-0.2-0.5-0.2-0.7-0.2
					C158.7,6.4,158.8,6.3,158.8,6.4"/>
				<polygon class="st2" points="159.8,18.2 159.8,18.2 159.8,18.2 159.8,18.2 				"/>
				<path class="st2" d="M162,6.7c0,0.1-0.1,0.1-0.2,0.2c-0.2,0.2-0.5,0.4-0.7,0.6c-0.2,0.2-0.3,0.3-0.5,0.5c0,0-0.1,0.2-0.1,0.2
					c-0.5-0.1-0.9-0.1-1.3-0.2l0-0.4c0,0,0.5,0,0.5-0.3c0,0,0-0.1-0.1-0.1c-0.1,0-0.2-0.1-0.2-0.1c0.3,0.1,0.6,0.2,1,0.3
					c0,0,0-0.2-0.1-0.2c0-0.1-0.1-0.1-0.2-0.1c-0.2-0.1-0.7-0.1-0.7-0.1s0.2,0,0.4,0c0.1,0,0.2-0.1,0.2-0.1c0-0.1,0-0.1-0.1-0.2
					c0-0.1-0.1-0.1-0.1-0.2c-0.1-0.1-0.1-0.2-0.2-0.3c-0.1-0.1-0.5-0.3-0.5-0.3s0-0.2,0-0.3c0-0.1,0.2-0.1,0.3-0.1
					c0.3,0.1,0.5,0.3,0.9,0.4c0.1,0.1,0.1,0.1,0.1,0.2c0,0.2,0,0.6,0,0.7c0,0.1,0.1,0.1,0.1,0c0.3-0.2,0.5-0.5,0.9-0.6
					C161.6,6.2,162.1,6.4,162,6.7 M160.6,11.1c0,0,0-0.7,0-1c0.2-0.1,0.2-0.2,0.2-0.4c0-0.1-0.2-0.1-0.3-0.2
					c-0.4-0.1-0.7-0.1-1.1-0.2c-0.3,0-0.6-0.1-0.9-0.2c-0.6-0.2-1.2-0.5-1.5-1c-0.3-0.7,0-1.6,0.7-2c0.5-0.3,1.1-0.2,1.6,0
					c0.2,0.1,0.3,0.2,0.4,0.4c0.1,0.1,0.1,0.1,0.2,0.2c0,0,0,0.1-0.1,0.1c-0.1,0-0.5,0-0.6,0c-0.2,0-0.4,0-0.6,0
					c0.2,0.1,0.3,0.2,0.5,0.3c0.1,0,0.2,0,0.3,0.1c0,0,0.1,0.1,0.1,0.1c0,0-0.1,0.1-0.2,0.1c-0.1,0-0.4,0-0.5,0
					c-0.3-0.1-0.4-0.2-0.6-0.1c-0.1,0.1-0.1,0.2-0.1,0.4c0.1,0.3,0.3,0.4,0.6,0.5c0.8,0.3,1.7,0.1,2.5,0.5c0.3,0.2,0.7,0.5,0.7,0.8
					C162.2,11,160.6,11.1,160.6,11.1 M159.3,9.7c0,0,0.2,0,0.6,0c0.3,0,0.5,0.1,0.5,0.1l0,1.4c-0.3-0.1-0.5-0.1-0.8-0.1
					c-0.1-0.5-0.2-0.7-0.4-1.1c0-0.1,0-0.1,0-0.1c0-0.1,0.2-0.1,0.2-0.1L159.3,9.7L159.3,9.7z M161.4,12.8c-0.1,0.2-0.2,0.4-0.4,0.6
					c-0.3,0.2-0.5,0.2-0.5,0.2l0-0.8c0,0,0.1,0,0.1-0.1c0,0,0.1-0.1,0-0.2c0,0,0-0.1-0.1-0.1c-0.1,0-0.2,0-0.2-0.1
					c-0.4,0-0.7-0.1-1.1-0.2c-0.7-0.1-1.2-0.5-1.1-1.2c0-0.4,0.5-0.6,0.8-0.7c0.1,0.2,0.2,0.4,0.2,0.5c0.1,0.2,0.1,0.3,0.1,0.3
					s-0.1,0-0.1,0.1c0,0.1,0.1,0.2,0.2,0.2c0.5,0.1,1.1,0.1,1.5,0.3c0.2,0.1,0.4,0.2,0.6,0.4C161.5,12.3,161.5,12.6,161.4,12.8
					 M159.5,12.5c0.3,0,0.4,0,0.7,0.1l0,1.3l-0.3-0.2l-0.3-0.1L159.5,12.5L159.5,12.5z M160.8,15.6c-0.2,0.1-0.4,0.2-0.4,0.2l0-0.6
					c0,0,0.1-0.1,0-0.1c0-0.1-0.4-0.4-0.6-0.5c-0.2-0.1-0.5-0.2-0.7-0.3c-0.5-0.2-0.7-0.6-0.5-1.1c0.1-0.2,0.3-0.3,0.4-0.3
					c0.1-0.1,0.3-0.1,0.3-0.1l0,0.7c0,0-0.1,0-0.1,0.1c0,0.1,0.1,0.2,0.1,0.2c0.3,0.1,0.8,0.3,1.1,0.5c0.4,0.3,0.6,0.4,0.6,0.7
					C161,15.3,160.9,15.5,160.8,15.6 M160.1,17c0,0.1,0,0.2-0.2,0.2c-0.2,0-0.2-0.1-0.2-0.2c0-0.7-0.1-2.2-0.1-2.2s0.2,0.1,0.3,0.1
					c0,0,0.1,0.1,0.2,0.2c0,0,0,0,0,0.1C160.2,15.8,160.1,16.8,160.1,17 M159.3,16.4c0,0.2,0.1,0.3,0,0.4c0,0.2-0.1,0.1-0.2,0
					c-0.1-0.2-0.1-0.2-0.2-0.5c0-0.4,0.1-0.5,0.2-0.6c0.1-0.1,0.2-0.1,0.2-0.1l0,0.6C159.4,16.2,159.3,16.2,159.3,16.4 M162.4,4.7
					c-0.9,0.1-1.7,0.2-2.6,0.2h0c-0.9,0-1.7-0.1-2.6-0.2c-0.9-0.1-1.7-0.3-2.6-0.6c-0.6,1.8-0.5,4.1,0,6.1c0.9,3.8,3.2,6.7,5.3,8
					c2-1.3,4.3-4.2,5.3-8c0.5-2,0.6-4.3,0-6.1C164.2,4.4,163.3,4.6,162.4,4.7"/>
			</g>
		</g>
		<g>
			<path d="M125.6,20.4c-0.5,0-0.9-0.4-0.9-0.9c0-0.5,0.4-0.9,0.9-0.9c0.5,0,0.9,0.4,0.9,0.9C126.5,20,126.1,20.4,125.6,20.4
				 M125.6,18.4c-0.6,0-1.1,0.5-1.1,1.1c0,0.6,0.5,1.1,1.1,1.1c0.6,0,1.1-0.5,1.1-1.1C126.6,18.9,126.1,18.4,125.6,18.4"/>
			<path d="M125.5,19.4h-0.2V19h0.3c0.1,0,0.3,0,0.3,0.2C125.9,19.4,125.7,19.4,125.5,19.4 M126.1,19.2c0-0.2-0.1-0.3-0.4-0.3h-0.5
				v1.2h0.2v-0.5h0.3l0.3,0.5h0.2l-0.4-0.5C125.9,19.5,126.1,19.5,126.1,19.2"/>
		</g>
	</g>
	<path d="M16.3,29.6l-0.4,1.1h-0.5l1.2-3.5h0.5l1.2,3.5h-0.5l-0.4-1.1H16.3z M17.4,29.2l-0.3-1C17,28,17,27.8,16.9,27.6h0
		c0,0.2-0.1,0.4-0.2,0.6l-0.3,1H17.4z"/>
	<path d="M18.9,28.9c0-0.3,0-0.5,0-0.7h0.4l0,0.4h0c0.1-0.2,0.4-0.5,0.8-0.5c0.3,0,0.9,0.2,0.9,1.1v1.5h-0.5v-1.4
		c0-0.4-0.1-0.7-0.6-0.7c-0.3,0-0.5,0.2-0.6,0.5c0,0.1,0,0.1,0,0.2v1.5h-0.5V28.9z"/>
	<path d="M23.3,27.2v3.5h-0.5v-3.5H23.3z"/>
	<path d="M24.1,28.9c0-0.3,0-0.5,0-0.7h0.4l0,0.4h0c0.1-0.2,0.4-0.5,0.8-0.5c0.3,0,0.9,0.2,0.9,1.1v1.5h-0.5v-1.4
		c0-0.4-0.2-0.7-0.6-0.7c-0.3,0-0.5,0.2-0.6,0.5c0,0.1,0,0.1,0,0.2v1.5h-0.5V28.9z"/>
	<path d="M29.1,27v3c0,0.2,0,0.5,0,0.6h-0.4l0-0.4h0c-0.1,0.3-0.4,0.5-0.8,0.5c-0.6,0-1.1-0.5-1.1-1.3c0-0.8,0.5-1.3,1.1-1.3
		c0.4,0,0.6,0.2,0.8,0.4h0V27H29.1z M28.6,29.2c0-0.1,0-0.1,0-0.2c-0.1-0.3-0.3-0.5-0.7-0.5c-0.5,0-0.7,0.4-0.7,1
		c0,0.5,0.3,0.9,0.7,0.9c0.3,0,0.6-0.2,0.7-0.5c0-0.1,0-0.1,0-0.2V29.2z"/>
	<path d="M30.1,29.5c0,0.6,0.4,0.9,0.8,0.9c0.3,0,0.5-0.1,0.7-0.1l0.1,0.3c-0.2,0.1-0.4,0.2-0.8,0.2c-0.8,0-1.2-0.5-1.2-1.3
		c0-0.8,0.4-1.3,1.2-1.3c0.8,0,1,0.7,1,1.2c0,0.1,0,0.2,0,0.2H30.1z M31.4,29.2c0-0.3-0.1-0.7-0.6-0.7c-0.5,0-0.7,0.4-0.7,0.7H31.4z
		"/>
	<path d="M32.4,29c0-0.3,0-0.6,0-0.8h0.4l0,0.4h0c0.2-0.3,0.5-0.5,0.9-0.5c0.6,0,1.1,0.5,1.1,1.3c0,0.9-0.6,1.3-1.1,1.3
		c-0.3,0-0.6-0.1-0.8-0.4h0v1.4h-0.5V29z M32.9,29.7c0,0.1,0,0.1,0,0.2c0.1,0.3,0.4,0.5,0.7,0.5c0.5,0,0.8-0.4,0.8-1
		c0-0.5-0.3-0.9-0.7-0.9c-0.3,0-0.6,0.2-0.7,0.6c0,0.1,0,0.1,0,0.2V29.7z"/>
	<path d="M35.6,29.5c0,0.6,0.4,0.9,0.8,0.9c0.3,0,0.5-0.1,0.7-0.1l0.1,0.3c-0.2,0.1-0.4,0.2-0.8,0.2c-0.8,0-1.2-0.5-1.2-1.3
		c0-0.8,0.4-1.3,1.2-1.3c0.8,0,1,0.7,1,1.2c0,0.1,0,0.2,0,0.2H35.6z M36.9,29.2c0-0.3-0.1-0.7-0.6-0.7c-0.5,0-0.7,0.4-0.7,0.7H36.9z
		"/>
	<path d="M37.9,28.9c0-0.3,0-0.5,0-0.7h0.4l0,0.4h0c0.1-0.2,0.4-0.5,0.8-0.5c0.3,0,0.9,0.2,0.9,1.1v1.5h-0.5v-1.4
		c0-0.4-0.1-0.7-0.6-0.7c-0.3,0-0.5,0.2-0.6,0.5c0,0.1,0,0.1,0,0.2v1.5h-0.5V28.9z"/>
	<path d="M42.9,27v3c0,0.2,0,0.5,0,0.6h-0.4l0-0.4h0c-0.1,0.3-0.4,0.5-0.8,0.5c-0.6,0-1.1-0.5-1.1-1.3c0-0.8,0.5-1.3,1.1-1.3
		c0.4,0,0.6,0.2,0.8,0.4h0V27H42.9z M42.5,29.2c0-0.1,0-0.1,0-0.2c-0.1-0.3-0.3-0.5-0.7-0.5c-0.5,0-0.7,0.4-0.7,1
		c0,0.5,0.3,0.9,0.7,0.9c0.3,0,0.6-0.2,0.7-0.5c0-0.1,0-0.1,0-0.2V29.2z"/>
	<path d="M43.9,29.5c0,0.6,0.4,0.9,0.8,0.9c0.3,0,0.5-0.1,0.7-0.1l0.1,0.3c-0.2,0.1-0.4,0.2-0.8,0.2c-0.8,0-1.2-0.5-1.2-1.3
		c0-0.8,0.4-1.3,1.2-1.3c0.8,0,1,0.7,1,1.2c0,0.1,0,0.2,0,0.2H43.9z M45.3,29.2c0-0.3-0.1-0.7-0.6-0.7c-0.5,0-0.7,0.4-0.7,0.7H45.3z
		"/>
	<path d="M46.3,28.9c0-0.3,0-0.5,0-0.7h0.4l0,0.4h0c0.1-0.2,0.4-0.5,0.8-0.5c0.3,0,0.9,0.2,0.9,1.1v1.5h-0.5v-1.4
		c0-0.4-0.2-0.7-0.6-0.7c-0.3,0-0.5,0.2-0.6,0.5c0,0.1,0,0.1,0,0.2v1.5h-0.5V28.9z"/>
	<path d="M49.6,27.6v0.6h0.6v0.3h-0.6v1.3c0,0.3,0.1,0.5,0.3,0.5c0.1,0,0.2,0,0.3,0l0,0.3c-0.1,0-0.2,0.1-0.4,0.1
		c-0.2,0-0.4-0.1-0.5-0.2c-0.1-0.1-0.2-0.4-0.2-0.7v-1.4h-0.4v-0.3h0.4v-0.5L49.6,27.6z"/>
	<path d="M51.9,27.2h0.5v3.1h1.5v0.4h-1.9V27.2z"/>
	<path d="M54.5,27.8c-0.2,0-0.3-0.1-0.3-0.3c0-0.2,0.1-0.3,0.3-0.3c0.2,0,0.3,0.1,0.3,0.3C54.8,27.7,54.7,27.8,54.5,27.8L54.5,27.8z
		 M54.3,30.7v-2.5h0.5v2.5H54.3z"/>
	<path d="M57.3,30.6c-0.1,0.1-0.4,0.1-0.7,0.1c-0.8,0-1.2-0.5-1.2-1.3c0-0.8,0.5-1.3,1.3-1.3c0.3,0,0.5,0.1,0.6,0.1l-0.1,0.3
		c-0.1-0.1-0.3-0.1-0.5-0.1c-0.6,0-0.9,0.4-0.9,0.9c0,0.6,0.4,0.9,0.9,0.9c0.3,0,0.4-0.1,0.6-0.1L57.3,30.6z"/>
	<path d="M58.1,29.5c0,0.6,0.4,0.9,0.8,0.9c0.3,0,0.5-0.1,0.7-0.1l0.1,0.3c-0.2,0.1-0.4,0.2-0.8,0.2c-0.8,0-1.2-0.5-1.2-1.3
		c0-0.8,0.4-1.3,1.2-1.3c0.8,0,1,0.7,1,1.2c0,0.1,0,0.2,0,0.2H58.1z M59.4,29.2c0-0.3-0.1-0.7-0.6-0.7c-0.5,0-0.7,0.4-0.7,0.7H59.4z
		"/>
	<path d="M60.4,28.9c0-0.3,0-0.5,0-0.7h0.4l0,0.4h0c0.1-0.2,0.4-0.5,0.8-0.5c0.3,0,0.9,0.2,0.9,1.1v1.5H62v-1.4
		c0-0.4-0.2-0.7-0.6-0.7c-0.3,0-0.5,0.2-0.6,0.5c0,0.1,0,0.1,0,0.2v1.5h-0.5V28.9z"/>
	<path d="M63.2,30.2c0.1,0.1,0.4,0.2,0.6,0.2c0.3,0,0.5-0.2,0.5-0.4c0-0.2-0.1-0.3-0.5-0.5c-0.5-0.2-0.7-0.4-0.7-0.7
		c0-0.4,0.3-0.7,0.9-0.7c0.3,0,0.5,0.1,0.6,0.2l-0.1,0.3c-0.1-0.1-0.3-0.1-0.5-0.1c-0.3,0-0.4,0.2-0.4,0.3c0,0.2,0.1,0.3,0.5,0.4
		c0.4,0.2,0.7,0.4,0.7,0.7c0,0.4-0.3,0.8-0.9,0.8c-0.3,0-0.5-0.1-0.7-0.2L63.2,30.2z"/>
	<path d="M65.5,29.5c0,0.6,0.4,0.9,0.8,0.9c0.3,0,0.5-0.1,0.7-0.1l0.1,0.3c-0.2,0.1-0.4,0.2-0.8,0.2c-0.8,0-1.2-0.5-1.2-1.3
		c0-0.8,0.4-1.3,1.2-1.3c0.8,0,1,0.7,1,1.2c0,0.1,0,0.2,0,0.2H65.5z M66.8,29.2c0-0.3-0.1-0.7-0.6-0.7c-0.5,0-0.7,0.4-0.7,0.7H66.8z
		"/>
	<path d="M68.1,29.5c0,0.6,0.4,0.9,0.8,0.9c0.3,0,0.5-0.1,0.7-0.1l0.1,0.3c-0.2,0.1-0.4,0.2-0.8,0.2c-0.8,0-1.2-0.5-1.2-1.3
		c0-0.8,0.4-1.3,1.2-1.3c0.8,0,1,0.7,1,1.2c0,0.1,0,0.2,0,0.2H68.1z M69.4,29.2c0-0.3-0.1-0.7-0.6-0.7c-0.5,0-0.7,0.4-0.7,0.7H69.4z
		"/>
	<path d="M72.5,30.7c-0.7,0-1.2-0.5-1.2-1.3c0-0.8,0.5-1.3,1.2-1.3c0.7,0,1.2,0.5,1.2,1.3C73.8,30.3,73.1,30.7,72.5,30.7L72.5,30.7z
		 M72.6,30.4c0.4,0,0.8-0.4,0.8-1c0-0.4-0.2-1-0.7-1c-0.5,0-0.8,0.5-0.8,1C71.8,30,72.1,30.4,72.6,30.4L72.6,30.4z"/>
	<path d="M74.4,30.7v-2.1H74v-0.3h0.3v-0.1c0-0.3,0.1-0.7,0.3-0.9c0.2-0.2,0.4-0.2,0.6-0.2c0.2,0,0.3,0,0.4,0.1l-0.1,0.3
		c-0.1,0-0.2-0.1-0.3-0.1c-0.4,0-0.5,0.3-0.5,0.7v0.1h0.6v0.3h-0.6v2.1H74.4z"/>
	<path d="M77.5,27.6v0.6h0.6v0.3h-0.6v1.3c0,0.3,0.1,0.5,0.3,0.5c0.1,0,0.2,0,0.3,0l0,0.3c-0.1,0-0.2,0.1-0.4,0.1
		c-0.2,0-0.4-0.1-0.5-0.2c-0.1-0.1-0.2-0.4-0.2-0.7v-1.4h-0.4v-0.3H77v-0.5L77.5,27.6z"/>
	<path d="M78.6,27h0.5v1.6h0c0.1-0.1,0.2-0.2,0.3-0.3c0.1-0.1,0.3-0.1,0.5-0.1c0.3,0,0.9,0.2,0.9,1.1v1.5h-0.5v-1.4
		c0-0.4-0.1-0.7-0.6-0.7c-0.3,0-0.5,0.2-0.6,0.5c0,0.1,0,0.1,0,0.2v1.5h-0.5V27z"/>
	<path d="M81.7,29.5c0,0.6,0.4,0.9,0.8,0.9c0.3,0,0.5-0.1,0.7-0.1l0.1,0.3c-0.2,0.1-0.4,0.2-0.8,0.2c-0.8,0-1.2-0.5-1.2-1.3
		c0-0.8,0.4-1.3,1.2-1.3c0.8,0,1,0.7,1,1.2c0,0.1,0,0.2,0,0.2H81.7z M83.1,29.2c0-0.3-0.1-0.7-0.6-0.7c-0.5,0-0.7,0.4-0.7,0.7H83.1z
		"/>
	<path d="M85.2,27.3c0.2,0,0.5-0.1,0.8-0.1c0.4,0,0.7,0.1,0.9,0.3c0.2,0.1,0.3,0.3,0.3,0.6c0,0.3-0.2,0.6-0.6,0.8v0
		c0.3,0.1,0.7,0.3,0.7,0.9c0,0.3-0.1,0.5-0.3,0.7c-0.2,0.2-0.6,0.3-1.2,0.3c-0.3,0-0.5,0-0.7,0V27.3z M85.6,28.7H86
		c0.5,0,0.7-0.3,0.7-0.6c0-0.4-0.3-0.6-0.8-0.6c-0.2,0-0.3,0-0.4,0V28.7z M85.6,30.4c0.1,0,0.2,0,0.4,0c0.5,0,0.9-0.2,0.9-0.7
		c0-0.5-0.4-0.7-0.9-0.7h-0.4V30.4z"/>
	<path d="M87.9,27h0.5v3.7h-0.5V27z"/>
	<path d="M91.2,30c0,0.3,0,0.5,0,0.7h-0.4l0-0.4h0c-0.1,0.2-0.4,0.5-0.8,0.5c-0.4,0-0.9-0.2-0.9-1.1v-1.5h0.5v1.4
		c0,0.5,0.1,0.8,0.6,0.8c0.3,0,0.5-0.2,0.6-0.4c0-0.1,0-0.1,0-0.2v-1.5h0.5V30z"/>
	<path d="M92.3,29.5c0,0.6,0.4,0.9,0.8,0.9c0.3,0,0.5-0.1,0.7-0.1l0.1,0.3c-0.2,0.1-0.4,0.2-0.8,0.2c-0.8,0-1.2-0.5-1.2-1.3
		c0-0.8,0.4-1.3,1.2-1.3c0.8,0,1,0.7,1,1.2c0,0.1,0,0.2,0,0.2H92.3z M93.6,29.2c0-0.3-0.1-0.7-0.6-0.7c-0.5,0-0.7,0.4-0.7,0.7H93.6z
		"/>
	<path d="M98.1,30.6c-0.2,0.1-0.5,0.2-0.9,0.2c-1,0-1.7-0.6-1.7-1.8c0-1.1,0.7-1.8,1.8-1.8c0.4,0,0.7,0.1,0.8,0.2L98,27.7
		c-0.2-0.1-0.4-0.1-0.7-0.1c-0.8,0-1.4,0.5-1.4,1.4c0,0.8,0.5,1.4,1.3,1.4c0.3,0,0.6-0.1,0.7-0.1L98.1,30.6z"/>
	<path d="M98.7,29c0-0.3,0-0.5,0-0.8H99l0,0.5h0c0.1-0.3,0.4-0.5,0.7-0.5c0,0,0.1,0,0.1,0v0.4c0,0-0.1,0-0.2,0
		c-0.3,0-0.5,0.2-0.6,0.6c0,0.1,0,0.1,0,0.2v1.3h-0.5V29z"/>
	<path d="M101.3,30.7c-0.7,0-1.2-0.5-1.2-1.3c0-0.8,0.6-1.3,1.2-1.3c0.7,0,1.2,0.5,1.2,1.3C102.5,30.3,101.9,30.7,101.3,30.7
		L101.3,30.7z M101.3,30.4c0.4,0,0.8-0.4,0.8-1c0-0.4-0.2-1-0.7-1c-0.5,0-0.8,0.5-0.8,1C100.6,30,100.9,30.4,101.3,30.4L101.3,30.4z
		"/>
	<path d="M103,30.2c0.1,0.1,0.4,0.2,0.6,0.2c0.3,0,0.5-0.2,0.5-0.4c0-0.2-0.1-0.3-0.5-0.5c-0.5-0.2-0.7-0.4-0.7-0.7
		c0-0.4,0.3-0.7,0.9-0.7c0.3,0,0.5,0.1,0.6,0.2l-0.1,0.3c-0.1-0.1-0.3-0.1-0.5-0.1c-0.3,0-0.4,0.2-0.4,0.3c0,0.2,0.1,0.3,0.5,0.4
		c0.4,0.2,0.7,0.4,0.7,0.7c0,0.4-0.3,0.8-0.9,0.8c-0.3,0-0.5-0.1-0.7-0.2L103,30.2z"/>
	<path d="M105.1,30.2c0.1,0.1,0.4,0.2,0.6,0.2c0.3,0,0.5-0.2,0.5-0.4c0-0.2-0.1-0.3-0.5-0.5c-0.5-0.2-0.7-0.4-0.7-0.7
		c0-0.4,0.3-0.7,0.9-0.7c0.3,0,0.5,0.1,0.6,0.2l-0.1,0.3c-0.1-0.1-0.3-0.1-0.5-0.1c-0.3,0-0.4,0.2-0.4,0.3c0,0.2,0.1,0.3,0.5,0.4
		c0.4,0.2,0.7,0.4,0.7,0.7c0,0.4-0.3,0.8-0.9,0.8c-0.3,0-0.5-0.1-0.7-0.2L105.1,30.2z"/>
	<path d="M110,30.1c0,0.2,0,0.4,0,0.6h-0.4l0-0.3h0c-0.1,0.2-0.4,0.4-0.8,0.4c-0.5,0-0.8-0.4-0.8-0.7c0-0.6,0.5-0.9,1.5-0.9v-0.1
		c0-0.2-0.1-0.6-0.6-0.6c-0.2,0-0.5,0.1-0.7,0.2l-0.1-0.3c0.2-0.1,0.5-0.2,0.8-0.2c0.8,0,0.9,0.5,0.9,1V30.1z M109.6,29.4
		c-0.5,0-1.1,0.1-1.1,0.6c0,0.3,0.2,0.4,0.4,0.4c0.3,0,0.5-0.2,0.6-0.4c0,0,0-0.1,0-0.1V29.4z"/>
	<path d="M110.8,28.9c0-0.3,0-0.5,0-0.7h0.4l0,0.4h0c0.1-0.2,0.4-0.5,0.8-0.5c0.3,0,0.9,0.2,0.9,1.1v1.5h-0.5v-1.4
		c0-0.4-0.1-0.7-0.6-0.7c-0.3,0-0.5,0.2-0.6,0.5c0,0.1,0,0.1,0,0.2v1.5h-0.5V28.9z"/>
	<path d="M115.8,27v3c0,0.2,0,0.5,0,0.6h-0.4l0-0.4h0c-0.1,0.3-0.4,0.5-0.8,0.5c-0.6,0-1.1-0.5-1.1-1.3c0-0.8,0.5-1.3,1.1-1.3
		c0.4,0,0.6,0.2,0.8,0.4h0V27H115.8z M115.3,29.2c0-0.1,0-0.1,0-0.2c-0.1-0.3-0.3-0.5-0.7-0.5c-0.5,0-0.7,0.4-0.7,1
		c0,0.5,0.3,0.9,0.7,0.9c0.3,0,0.6-0.2,0.7-0.5c0-0.1,0-0.1,0-0.2V29.2z"/>
	<path d="M117.6,27.3c0.2,0,0.5-0.1,0.8-0.1c0.4,0,0.7,0.1,0.9,0.3c0.2,0.1,0.3,0.3,0.3,0.6c0,0.3-0.2,0.6-0.6,0.8v0
		c0.3,0.1,0.7,0.3,0.7,0.9c0,0.3-0.1,0.5-0.3,0.7c-0.2,0.2-0.6,0.3-1.2,0.3c-0.3,0-0.5,0-0.7,0V27.3z M118.1,28.7h0.4
		c0.5,0,0.7-0.3,0.7-0.6c0-0.4-0.3-0.6-0.8-0.6c-0.2,0-0.3,0-0.4,0V28.7z M118.1,30.4c0.1,0,0.2,0,0.4,0c0.5,0,0.9-0.2,0.9-0.7
		c0-0.5-0.4-0.7-0.9-0.7h-0.4V30.4z"/>
	<path d="M120.4,27h0.5v3.7h-0.5V27z"/>
	<path d="M123.7,30c0,0.3,0,0.5,0,0.7h-0.4l0-0.4h0c-0.1,0.2-0.4,0.5-0.8,0.5c-0.4,0-0.9-0.2-0.9-1.1v-1.5h0.5v1.4
		c0,0.5,0.1,0.8,0.6,0.8c0.3,0,0.5-0.2,0.6-0.4c0-0.1,0-0.1,0-0.2v-1.5h0.5V30z"/>
	<path d="M124.7,29.5c0,0.6,0.4,0.9,0.8,0.9c0.3,0,0.5-0.1,0.7-0.1l0.1,0.3c-0.2,0.1-0.4,0.2-0.8,0.2c-0.8,0-1.2-0.5-1.2-1.3
		c0-0.8,0.4-1.3,1.2-1.3c0.8,0,1,0.7,1,1.2c0,0.1,0,0.2,0,0.2H124.7z M126,29.2c0-0.3-0.1-0.7-0.6-0.7c-0.5,0-0.7,0.4-0.7,0.7H126z"
		/>
	<path d="M128.1,30.1c0.2,0.1,0.5,0.2,0.8,0.2c0.5,0,0.7-0.2,0.7-0.6c0-0.3-0.2-0.5-0.7-0.7c-0.6-0.2-0.9-0.5-0.9-1
		c0-0.5,0.4-0.9,1.1-0.9c0.3,0,0.6,0.1,0.8,0.2l-0.1,0.4c-0.1-0.1-0.3-0.2-0.7-0.2c-0.5,0-0.7,0.3-0.7,0.5c0,0.3,0.2,0.5,0.7,0.7
		c0.6,0.2,0.9,0.5,0.9,1c0,0.5-0.4,1-1.2,1c-0.3,0-0.7-0.1-0.9-0.2L128.1,30.1z"/>
	<path d="M130.6,27h0.5v1.6h0c0.1-0.1,0.2-0.2,0.3-0.3c0.1-0.1,0.3-0.1,0.5-0.1c0.3,0,0.9,0.2,0.9,1.1v1.5h-0.5v-1.4
		c0-0.4-0.1-0.7-0.6-0.7c-0.3,0-0.5,0.2-0.6,0.5c0,0.1,0,0.1,0,0.2v1.5h-0.5V27z"/>
	<path d="M133.7,27.8c-0.2,0-0.3-0.1-0.3-0.3c0-0.2,0.1-0.3,0.3-0.3c0.2,0,0.3,0.1,0.3,0.3C134,27.7,133.9,27.8,133.7,27.8
		L133.7,27.8z M133.5,30.7v-2.5h0.5v2.5H133.5z"/>
	<path d="M135,29.5c0,0.6,0.4,0.9,0.9,0.9c0.3,0,0.5-0.1,0.7-0.1l0.1,0.3c-0.2,0.1-0.4,0.2-0.8,0.2c-0.8,0-1.2-0.5-1.2-1.3
		c0-0.8,0.4-1.3,1.2-1.3c0.8,0,1,0.7,1,1.2c0,0.1,0,0.2,0,0.2H135z M136.3,29.2c0-0.3-0.1-0.7-0.6-0.7c-0.5,0-0.7,0.4-0.7,0.7H136.3
		z"/>
	<path d="M137.3,27h0.4v3.7h-0.4V27z"/>
	<path d="M140.6,27v3c0,0.2,0,0.5,0,0.6h-0.4l0-0.4h0c-0.1,0.3-0.4,0.5-0.8,0.5c-0.6,0-1.1-0.5-1.1-1.3c0-0.8,0.5-1.3,1.1-1.3
		c0.4,0,0.6,0.2,0.8,0.4h0V27H140.6z M140.2,29.2c0-0.1,0-0.1,0-0.2c-0.1-0.3-0.3-0.5-0.7-0.5c-0.5,0-0.7,0.4-0.7,1
		c0,0.5,0.3,0.9,0.7,0.9c0.3,0,0.6-0.2,0.7-0.5c0-0.1,0-0.1,0-0.2V29.2z"/>
	<path d="M143.1,29.6l-0.4,1.1h-0.5l1.2-3.5h0.5l1.2,3.5h-0.5l-0.4-1.1H143.1z M144.2,29.2l-0.3-1c-0.1-0.2-0.1-0.4-0.2-0.6h0
		c0,0.2-0.1,0.4-0.2,0.6l-0.3,1H144.2z"/>
	<path d="M145.5,30.2c0.1,0.1,0.4,0.2,0.6,0.2c0.3,0,0.5-0.2,0.5-0.4c0-0.2-0.1-0.3-0.5-0.5c-0.5-0.2-0.7-0.4-0.7-0.7
		c0-0.4,0.3-0.7,0.9-0.7c0.3,0,0.5,0.1,0.6,0.2l-0.1,0.3c-0.1-0.1-0.3-0.1-0.5-0.1c-0.3,0-0.4,0.2-0.4,0.3c0,0.2,0.1,0.3,0.5,0.4
		c0.4,0.2,0.7,0.4,0.7,0.7c0,0.4-0.3,0.8-0.9,0.8c-0.3,0-0.5-0.1-0.7-0.2L145.5,30.2z"/>
	<path d="M147.6,30.2c0.1,0.1,0.4,0.2,0.6,0.2c0.3,0,0.5-0.2,0.5-0.4c0-0.2-0.1-0.3-0.5-0.5c-0.5-0.2-0.7-0.4-0.7-0.7
		c0-0.4,0.3-0.7,0.9-0.7c0.3,0,0.5,0.1,0.6,0.2l-0.1,0.3c-0.1-0.1-0.3-0.1-0.5-0.1c-0.3,0-0.4,0.2-0.4,0.3c0,0.2,0.1,0.3,0.5,0.4
		c0.4,0.2,0.7,0.4,0.7,0.7c0,0.4-0.3,0.8-0.9,0.8c-0.3,0-0.5-0.1-0.7-0.2L147.6,30.2z"/>
	<path d="M150.7,30.7c-0.7,0-1.2-0.5-1.2-1.3c0-0.8,0.6-1.3,1.2-1.3c0.7,0,1.2,0.5,1.2,1.3C151.9,30.3,151.3,30.7,150.7,30.7
		L150.7,30.7z M150.7,30.4c0.4,0,0.8-0.4,0.8-1c0-0.4-0.2-1-0.7-1c-0.5,0-0.8,0.5-0.8,1C150,30,150.3,30.4,150.7,30.4L150.7,30.4z"
		/>
	<path d="M154.3,30.6c-0.1,0.1-0.4,0.1-0.7,0.1c-0.8,0-1.2-0.5-1.2-1.3c0-0.8,0.5-1.3,1.3-1.3c0.3,0,0.5,0.1,0.6,0.1l-0.1,0.3
		c-0.1-0.1-0.3-0.1-0.5-0.1c-0.6,0-0.9,0.4-0.9,0.9c0,0.6,0.4,0.9,0.9,0.9c0.3,0,0.4-0.1,0.6-0.1L154.3,30.6z"/>
	<path d="M155,27.8c-0.2,0-0.3-0.1-0.3-0.3c0-0.2,0.1-0.3,0.3-0.3c0.2,0,0.3,0.1,0.3,0.3C155.3,27.7,155.2,27.8,155,27.8L155,27.8z
		 M154.8,30.7v-2.5h0.5v2.5H154.8z"/>
	<path d="M157.8,30.1c0,0.2,0,0.4,0,0.6h-0.4l0-0.3h0c-0.1,0.2-0.4,0.4-0.8,0.4c-0.5,0-0.8-0.4-0.8-0.7c0-0.6,0.5-0.9,1.5-0.9v-0.1
		c0-0.2-0.1-0.6-0.6-0.6c-0.2,0-0.5,0.1-0.7,0.2l-0.1-0.3c0.2-0.1,0.5-0.2,0.8-0.2c0.8,0,1,0.5,1,1V30.1z M157.3,29.4
		c-0.5,0-1.1,0.1-1.1,0.6c0,0.3,0.2,0.4,0.4,0.4c0.3,0,0.5-0.2,0.6-0.4c0,0,0-0.1,0-0.1V29.4z"/>
	<path d="M159,27.6v0.6h0.6v0.3H159v1.3c0,0.3,0.1,0.5,0.3,0.5c0.1,0,0.2,0,0.3,0l0,0.3c-0.1,0-0.2,0.1-0.4,0.1
		c-0.2,0-0.4-0.1-0.5-0.2c-0.1-0.1-0.2-0.4-0.2-0.7v-1.4h-0.4v-0.3h0.4v-0.5L159,27.6z"/>
	<path d="M160.4,27.8c-0.2,0-0.3-0.1-0.3-0.3c0-0.2,0.1-0.3,0.3-0.3c0.2,0,0.3,0.1,0.3,0.3C160.7,27.7,160.6,27.8,160.4,27.8
		L160.4,27.8z M160.2,30.7v-2.5h0.5v2.5H160.2z"/>
	<path d="M162.4,30.7c-0.7,0-1.2-0.5-1.2-1.3c0-0.8,0.6-1.3,1.2-1.3c0.7,0,1.2,0.5,1.2,1.3C163.6,30.3,163,30.7,162.4,30.7
		L162.4,30.7z M162.4,30.4c0.4,0,0.8-0.4,0.8-1c0-0.4-0.2-1-0.7-1c-0.5,0-0.8,0.5-0.8,1C161.7,30,162,30.4,162.4,30.4L162.4,30.4z"
		/>
	<path d="M164.2,28.9c0-0.3,0-0.5,0-0.7h0.4l0,0.4h0c0.1-0.2,0.4-0.5,0.8-0.5c0.3,0,0.9,0.2,0.9,1.1v1.5h-0.5v-1.4
		c0-0.4-0.2-0.7-0.6-0.7c-0.3,0-0.5,0.2-0.6,0.5c0,0.1,0,0.1,0,0.2v1.5h-0.5V28.9z"/>
</g>
</svg>
