<?xml version="1.0" encoding="utf-8"?>
<!-- Generator: Adobe Illustrator 23.0.3, SVG Export Plug-In . SVG Version: 6.00 Build 0)  -->
<svg version="1.1" id="Layer_1" xmlns="http://www.w3.org/2000/svg" xmlns:xlink="http://www.w3.org/1999/xlink" x="0px" y="0px"
	 viewBox="0 0 278 107.3" style="enable-background:new 0 0 278 107.3;" xml:space="preserve">
<style type="text/css">
	.st0{fill:#003DA6;}
</style>
<g>
	<g>
		<path class="st0" d="M74.9,7.2v16.5h22v37.3l14.6,0l-1.6,4.6c-1.6,4.7-3.6,8.8-5.9,12.4l12.1,13h0.8l0-67.2h22.9l0-16.5H74.9z"/>
		<path class="st0" d="M54.7,76.4c0-7,3.7-11.4,8.4-14.9c-3.6-3.9-5.4-7.3-5.4-12.2c0-2,0.4-4,1.3-5.9c-3-1.5-6.5-2.8-10.4-4
			c-13.3-4.1-16.4-6.3-16.4-11.6c0-5.3,4.4-8.2,11.4-8.2c6.9,0,12.8,2.3,18.5,7l9.4-10.7C64,8.9,55,5.2,42,5.2
			c-17.7,0-30.7,9.4-30.7,24.1c0,12.4,7,20.1,26,25.9c12.4,3.7,15.6,6.5,15.6,12.6c0,6.4-5.2,10.2-13.5,10.2c-8.5,0-15.3-3-21.3-8.3
			L7.8,80.8c7,6.6,17.5,11.9,32.3,11.9c7.9,0,14.7-1.5,20-4.2C56.6,85.4,54.7,81.3,54.7,76.4z"/>
	</g>
	<g>
		<path class="st0" d="M93,48.8c0,6.2-4.1,10.2-9.9,13.9l10.2,9.4c1.4-3,2.6-3.9,3.6-8.1h10c-2,5.6-4.4,10.4-7,14l11.9,12.7H99
			l-6-5.7c-4.7,3.8-10.2,5.5-16.5,5.5c-11.1,0-18.6-5.7-18.6-14.3c0-6.1,3.4-10.1,10.2-14.5c-5.2-4.9-7.2-7.9-7.2-12.6
			C60.9,42.9,66,37,77,37C87.1,37,93,42.1,93,48.8z M74.8,68.2c-3.1,2.2-4.5,4.6-4.5,7.5c0,4.1,3.2,6.7,8.2,6.7c3.3,0,6-1,8.5-2.8
			L74.8,68.2z M72.3,49.3c0,2.6,1.1,4.3,4.3,7.4c3.5-2.2,5.1-4.4,5.1-7.5c0-2.8-1.7-4.6-4.6-4.6C74.1,44.6,72.3,46.5,72.3,49.3z"/>
	</g>
	<path class="st0" d="M163.8,75.4c0,11.2-8.7,15-20.9,15h-14.6V37.6h12.5c13,0,20.7,4.1,20.7,13.3c0,6.5-4.8,10.5-9.9,11.6
		C157.7,63.6,163.8,66.4,163.8,75.4z M135.6,60h8c5.9,0,10.5-2.9,10.5-8.5c0-6.5-4.7-8.1-12.5-8.1h-6V60z M142.8,84.6
		c7.7,0,13.3-1.5,13.3-9.2c0-7.4-5.5-9.8-11.9-9.8h-8.7v19H142.8z"/>
	<path class="st0" d="M198.2,80.6c0,3.5,1.3,4.7,3.4,5.4l-1.6,4.9c-4.1-0.5-6.7-2.1-7.9-6.1c-2.8,4.2-7.1,6.1-12,6.1
		c-8,0-12.9-5-12.9-12.2c0-8.7,6.5-13.3,17.8-13.3h6.2v-3c0-5.8-2.8-8-8.4-8c-3,0-6.7,0.8-10.9,2.1l-1.8-5.1c5-1.8,9.4-2.8,14-2.8
		c9.7,0,14.2,5,14.2,13.4V80.6z M191.1,79.3v-9.3h-5.3c-7.4,0-11.2,2.8-11.2,8.3c0,4.8,2.4,7.3,7,7.3
		C185.8,85.6,188.8,83.6,191.1,79.3z"/>
	<path class="st0" d="M235.2,61v29h-7.1V62c0-6.1-2.5-7.8-6.4-7.8c-4.5,0-7.6,2.8-10.3,7.1V90h-7.1V49.6h6.1l0.6,6
		c2.8-4.1,7.1-6.9,12.3-6.9C230.9,48.7,235.2,53.4,235.2,61z"/>
	<path class="st0" d="M241.2,90V38.4l7.1-1.2V90H241.2z M273.2,90h-8.4l-16-22.1l14.9-18.3h7.9l-14.9,17.9L273.2,90z"/>
</g>
<g>
	<path class="st0" d="M210.8,103.7l-0.2-3.3c-0.1-1.2-0.1-2.4-0.1-3.2l-1.4,5.7h-1.4l-1.5-5.7c0,1.1,0,2.2,0,3.3l-0.2,3.3h-1.5
		l0.6-8h2l1.4,5.6l1.3-5.6h2l0.6,8H210.8z"/>
	<path class="st0" d="M215.3,96.8v2.2h2.6v1.1h-2.6v2.3h3.1v1.1h-4.7v-8h4.6l-0.2,1.1H215.3z"/>
	<path class="st0" d="M226.1,103.7l-0.2-3.3c-0.1-1.2-0.1-2.4-0.1-3.2l-1.4,5.7h-1.4l-1.5-5.7c0,1.1,0,2.2,0,3.3l-0.2,3.3h-1.5
		l0.6-8h2l1.4,5.6l1.3-5.6h2l0.6,8H226.1z"/>
	<path class="st0" d="M234.5,101.4c0,1.8-1.4,2.3-3.3,2.3h-2.4v-8h2.1c2,0,3.3,0.6,3.3,2c0,1-0.7,1.6-1.5,1.7
		C233.6,99.6,234.5,100.1,234.5,101.4z M230.3,99h0.9c0.8,0,1.4-0.4,1.4-1.1c0-0.8-0.6-1-1.6-1h-0.7V99z M231.2,102.5
		c1,0,1.7-0.2,1.7-1.2c0-1-0.7-1.3-1.6-1.3h-1v2.5H231.2z"/>
	<path class="st0" d="M237.3,96.8v2.2h2.6v1.1h-2.6v2.3h3.1v1.1h-4.7v-8h4.6l-0.2,1.1H237.3z"/>
	<path class="st0" d="M243.2,100.5v3.2h-1.5v-8h2.4c2.1,0,3.2,0.8,3.2,2.3c0,1.1-0.5,1.7-1.6,2.2l2.1,3.5H246l-1.8-3.2H243.2z
		 M244.2,99.4c0.9,0,1.5-0.4,1.5-1.3c0-0.9-0.5-1.2-1.6-1.2h-0.8v2.6H244.2z"/>
	<path class="st0" d="M253,96.8v2.4h2.5v1.1H253v3.3h-1.5v-8h4.5l-0.2,1.1H253z"/>
	<path class="st0" d="M259,95.7c2.1,0,4.1,0.6,4.1,3.9c0,3.2-2,4-3.9,4H257v-8H259z M258.5,102.5h0.7c1.2,0,2.2-0.5,2.2-2.9
		c0-2.4-1-2.8-2.2-2.8h-0.7V102.5z"/>
	<path class="st0" d="M264.3,103.7v-8h1.5v8H264.3z"/>
	<path class="st0" d="M273,96.4l-0.8,0.9c-0.4-0.4-0.9-0.6-1.5-0.6c-1.1,0-1.9,0.8-1.9,3c0,2.1,0.8,2.9,2,2.9c0.7,0,1.2-0.3,1.6-0.7
		l0.7,0.9c-0.5,0.5-1.3,1-2.4,1c-2.1,0-3.5-1.5-3.5-4.2c0-2.7,1.5-4.1,3.5-4.1C271.7,95.5,272.3,95.8,273,96.4z"/>
</g>
</svg>
