<?xml version="1.0" encoding="utf-8"?>
<!-- Generator: Adobe Illustrator 23.0.4, SVG Export Plug-In . SVG Version: 6.00 Build 0)  -->
<svg version="1.1" id="Layer_2" xmlns="http://www.w3.org/2000/svg" xmlns:xlink="http://www.w3.org/1999/xlink" x="0px" y="0px"
	 viewBox="0 0 1530.4 138" style="enable-background:new 0 0 1530.4 138;" xml:space="preserve">
<style type="text/css">
	.Arched_x0020_Green{fill:url(#SVGID_1_);stroke:#FFFFFF;stroke-width:0.25;stroke-miterlimit:1;}
	.st0{fill:#712C6B;}
</style>
<linearGradient id="SVGID_1_" gradientUnits="userSpaceOnUse" x1="312.6076" y1="225.462" x2="313.3147" y2="224.7549">
	<stop  offset="0" style="stop-color:#20AC4B"/>
	<stop  offset="0.9831" style="stop-color:#1C361D"/>
</linearGradient>
<g>
	<path class="st0" d="M159,9.7c0.7,0,1.8,0,3.5,0c1.6,0,3.6,0,5.8,0c2.2,0,4.6,0,7.3-0.1c2.7-0.1,5.4-0.1,8.1-0.1
		c6.2,0,13.1-0.1,20.7-0.2c13.7-0.1,24,2.8,30.9,8.7c6.9,5.9,10.4,13.9,10.4,24c-0.2,7.3-2.3,13.7-6.1,19.2
		c-1.7,2.4-3.9,4.7-6.5,7.1c-2.6,2.3-5.9,4.4-9.8,6.2c-3.9,1.8-8.5,3.3-13.8,4.3c-5.3,1.1-11.4,1.6-18.4,1.6h-7.5v28.7
		c0,2.7,0.2,5,0.5,7c0.3,1.9,1,3.5,1.9,4.7c0.9,1.2,2.2,2.1,3.9,2.7c1.7,0.6,3.9,1,6.6,1.1v5.1h-48.3v-5.1c2.7-0.1,5-0.5,6.7-1.1
		c1.8-0.6,3.1-1.6,4-2.8c0.9-1.2,1.5-2.9,1.9-4.8c0.3-2,0.5-4.4,0.5-7.4V83.3l0.2,0.5v-54c0-5.4-1-9.2-3-11.3
		c-2-2.1-5.8-3.1-11.3-3.1h-2.5h-4.6c-3.6,0.2-6.4,0.8-8.3,1.8c-1.9,1-3.3,2.6-4.2,4.8c-0.7,1.7-1.1,4.2-1.3,7.6s-0.3,7.6-0.3,12.7
		c-0.1,5.1-0.1,11-0.1,17.8c0,6.8-0.2,14.4-0.5,22.9c-0.7,16.9-5.1,29.3-13.3,37.3c-8.2,8-20.7,12-37.5,12
		c-16.9,0-29.9-4.2-39.1-12.7c-9.2-8.5-13.8-21.1-13.8-37.7V31.3c0-3.1-0.1-5.6-0.3-7.6c-0.2-2-0.7-3.6-1.5-4.8s-2.1-2.1-3.8-2.7
		c-1.7-0.6-4-1.1-7-1.4V9.7h49.1v5.1c-2.9,0.2-5.3,0.7-7,1.4c-1.7,0.7-3,1.7-3.9,3.1c-0.9,1.4-1.5,3.1-1.8,5.3
		c-0.3,2.2-0.4,4.8-0.4,7.8v51.3c0,13,2.5,22.9,7.4,29.7c4.9,6.7,12.8,10.1,23.7,10.1c5.9,0,11.3-0.9,16.2-2.8
		c4.9-1.9,9.1-4.7,12.7-8.4c2.4-2.5,4.2-5.3,5.5-8.3c1.3-3.1,2.3-6.5,2.9-10.2c0.6-3.7,1-7.8,1.2-12.3c0.2-4.5,0.3-9.4,0.3-14.7
		c0-13.8-0.1-24.4-0.3-31.7c-0.2-7.3-0.9-12.1-2.1-14.5c-1-1.9-2.5-3.3-4.5-4.1c-2-0.8-4.7-1.3-8.1-1.5V9.7H159z M183.6,71.9
		c0.6,0,1.2,0,1.8,0.1c0.6,0.1,1.2,0.1,1.8,0.1c5.8,0,10.9-0.8,15.3-2.5c4.4-1.7,8.1-4,11.1-7.1c3-3,5.3-6.5,6.8-10.5
		c1.5-4,2.3-8.4,2.3-13c0-7.4-2.2-13.1-6.5-17.1c-4.3-4-10.5-6-18.7-6c-5.1,0-8.7,0.9-10.8,2.6c-2.1,1.8-3.1,4.7-3.1,8.8V71.9z
		 M240.4,129.6v-5.1c2.2-0.2,4.1-0.5,5.9-0.8c1.8-0.3,3.3-0.8,4.5-1.5c1.2-0.7,2.3-1.6,3.1-2.8c0.8-1.2,1.3-2.7,1.5-4.7l9.5-86.3
		c0-2.5-0.2-4.6-0.5-6.4c-0.3-1.8-0.9-3.1-1.8-4.2s-2.1-1.8-3.7-2.2c-1.6-0.5-3.7-0.7-6.2-0.8V9.7h33.1l36.5,89l38.4-89h36.7v5.1
		c-2.6,0.1-4.7,0.5-6.3,1.2c-1.6,0.7-2.8,1.7-3.7,3.1c-0.9,1.4-1.5,3.3-1.9,5.5c-0.3,2.3-0.5,5-0.5,8.2c0,27,0.4,47.4,1.2,61.4
		c0.8,14,1.2,21.3,1.4,21.8c0.6,2.8,1.8,4.8,3.6,5.9c1.8,1.1,4.8,2,8.8,2.5v5.1h-49.1v-5.1c2.8-0.1,5.1-0.5,6.8-1.2s3-1.7,3.9-3.1
		c0.9-1.4,1.5-3.3,1.9-5.6c0.3-2.3,0.5-5.2,0.5-8.6c0-7.6,0-14.6-0.1-21.1c-0.1-6.5-0.1-12.7-0.2-18.6c-0.1-5.9-0.2-11.8-0.3-17.4
		c-0.2-5.7-0.3-11.4-0.4-17.2l-41.5,97.9h-8L274,39.4l-7.3,70.2c-0.2,2.5-0.3,4.6-0.3,6.3c0.1,1.7,0.4,3.1,1.1,4.3s1.8,2.1,3.3,2.8
		c1.5,0.7,3.7,1.2,6.4,1.5v5.1H240.4z M475,120.6c7.8,0,15-1.4,21.6-4.1c6.6-2.7,12.9-7.6,19-14.6l7.6,11.9
		c-8.3,6.3-16.9,11-25.7,14c-8.9,3-18.6,4.5-29,4.5c-10.1,0-19.2-1.5-27.3-4.4c-8.1-2.9-15-7.1-20.6-12.4
		c-5.7-5.3-10-11.7-13.1-19.2c-3.1-7.5-4.6-15.8-4.6-25c0-9.7,1.6-18.5,4.9-26.4c3.3-7.9,8-14.6,14-20.2c6.1-5.6,13.4-9.9,22.1-12.9
		c8.7-3,18.4-4.5,29.1-4.5c16.1,0,31.9,3.1,47.6,9.2V42h-4.9c-2.3-8.4-7.2-14.5-15-18.4c-7.7-3.9-17.1-5.8-28.2-5.8
		c-6.5,0-12.4,0.9-17.8,2.8c-5.4,1.9-10.1,4.7-14,8.6c-4,3.9-7.1,8.7-9.3,14.6c-2.2,5.9-3.3,12.9-3.3,20.9c0,9.3,1.2,17.4,3.5,24.4
		c2.3,7,5.5,12.8,9.7,17.5c4.1,4.7,9.1,8.2,14.8,10.5C462,119.5,468.2,120.6,475,120.6z"/>
	<path class="st0" d="M653.3,129.6v-5.1c2.8-0.1,5.1-0.5,6.8-1.1c1.7-0.6,3-1.6,4-2.8c1-1.2,1.6-2.9,2-4.8c0.3-2,0.5-4.4,0.5-7.4
		V70.5h-61.7v38.6c0,2.7,0.2,5,0.5,7c0.3,1.9,1,3.5,1.9,4.7c0.9,1.2,2.2,2.1,3.9,2.7c1.7,0.6,3.9,1,6.6,1.1v5.1h-48.4v-5.1
		c2.7-0.1,5-0.5,6.7-1.1c1.8-0.6,3.1-1.6,4-2.8c0.9-1.2,1.5-2.9,1.9-4.8c0.3-2,0.5-4.4,0.5-7.4V29.9c0-2.7-0.2-5-0.6-6.9
		c-0.4-1.9-1.1-3.4-2-4.6c-1-1.2-2.3-2.1-4-2.6c-1.7-0.6-3.9-0.9-6.5-1V9.7h48.4v5.1c-2.7,0.2-4.9,0.6-6.6,1.2
		c-1.7,0.6-3,1.4-3.9,2.6c-0.9,1.2-1.5,2.7-1.9,4.6s-0.5,4.2-0.5,6.9v31.6h61.7V29.2c0-2.5-0.2-4.6-0.5-6.5c-0.3-1.8-1-3.3-2-4.3
		c-1-1.1-2.3-1.9-4.1-2.5c-1.8-0.6-4-1-6.7-1.2V9.7h48.6v5.1c-2.6,0.1-4.8,0.5-6.5,1c-1.7,0.6-3,1.4-4,2.5c-1,1.1-1.6,2.6-2,4.4
		c-0.4,1.8-0.6,4.1-0.6,6.8v78.2c0,3.1,0.1,5.6,0.4,7.6c0.3,2,0.9,3.7,1.8,5c0.9,1.3,2.2,2.3,3.9,3s4,1.1,7,1.2v5.1H653.3z"/>
	<path class="st0" d="M768.3,41.4l0.8,20.4h-3.4c-1-6-3.3-10.1-7-12.4c-3.7-2.3-9.2-3.4-16.5-3.4c-2.8,0-5.9,0.1-9.2,0.4v34.6
		c1.2,0.1,2.3,0.1,3.4,0.1s2.2,0,3.2,0c2.9,0,5.4-0.1,7.4-0.4c2-0.2,3.7-0.8,4.9-1.5s2.2-1.9,2.8-3.4s1-3.5,1.1-6h3.9v28.9h-3.9
		c-0.2-2.8-0.5-4.9-1.1-6.5c-0.5-1.6-1.4-2.8-2.6-3.6c-1.2-0.8-2.7-1.3-4.7-1.6c-2-0.2-4.4-0.4-7.2-0.4c-1.1,0-2.2,0-3.4,0
		c-1.2,0-2.5,0-3.9,0.1v27.8c0,4,0.9,6.8,2.8,8.3c1.8,1.5,5.2,2.3,10.1,2.3c7.5,0,13.2-1.4,17.1-4.1c3.9-2.8,6.5-7.5,7.6-14.1h3.8
		l-1.6,22.7H707v-3.7c2-0.1,3.6-0.4,4.9-0.8c1.3-0.5,2.3-1.1,2.9-2.1c0.7-0.9,1.1-2.1,1.4-3.6c0.2-1.5,0.4-3.3,0.4-5.4V56.3
		c0-2-0.1-3.7-0.4-5.1c-0.3-1.4-0.8-2.5-1.5-3.4c-0.7-0.9-1.7-1.5-2.9-1.9c-1.2-0.4-2.8-0.7-4.8-0.8v-3.8H768.3z"/>
	<path class="st0" d="M859.5,119.6c0.8,1.3,1.6,2.5,2.6,3.4c1,0.9,2.1,1.6,3.4,2.1c1.3,0.5,3,0.8,5,0.8v3.7h-37.4v-3.7
		c3.6-0.2,6.1-0.6,7.5-1.2c1.4-0.7,2.1-2.1,2.1-4.2c0-1.1-0.3-2.4-0.9-3.9l-7.1-16.8H806l-6.2,17.6c-0.4,1.1-0.6,2.2-0.6,3.2
		c0,1.9,0.7,3.2,2.1,3.9c1.4,0.7,3.8,1.1,7.1,1.3v3.7h-31.2v-3.7c2.3-0.2,4.3-0.6,6-1.3c1.7-0.7,3.1-1.7,4.4-2.9
		c1.3-1.2,2.4-2.8,3.4-4.8c1-1.9,2-4.2,3-6.8l26.5-68.8h4.6l32.1,73.5C858,116.7,858.8,118.3,859.5,119.6z M832,93.8l-12.8-29.1
		l-11,29.1H832z"/>
	<path class="st0" d="M940.1,129.6h-69.5v-3.7c2-0.1,3.6-0.4,4.9-0.8c1.3-0.5,2.3-1.1,2.9-2.1c0.7-0.9,1.1-2.1,1.4-3.6
		c0.2-1.5,0.4-3.3,0.4-5.4V56.3c0-2-0.1-3.7-0.4-5.1c-0.3-1.4-0.8-2.5-1.5-3.4c-0.7-0.9-1.7-1.5-2.9-1.9c-1.2-0.4-2.8-0.7-4.8-0.8
		v-3.8h36.1v3.8c-2,0.2-3.6,0.5-4.9,0.9c-1.2,0.4-2.2,1.1-2.9,1.9c-0.7,0.9-1.1,2-1.4,3.4c-0.2,1.4-0.4,3.1-0.4,5.1v58
		c0,2,0.2,3.7,0.6,5c0.4,1.3,1.1,2.4,2.2,3.2c1,0.8,2.5,1.4,4.4,1.7c1.9,0.3,4.4,0.5,7.4,0.5c4.1,0,7.6-0.3,10.6-0.9
		c3-0.6,5.5-1.6,7.6-3c2-1.4,3.7-3.3,4.9-5.6c1.2-2.3,2.2-5.1,2.9-8.6h4.1L940.1,129.6z"/>
	<path class="st0" d="M1005.9,41.4c0.2,3.8,0.3,7.8,0.4,11.9c0.1,4.1,0.2,8.4,0.4,12.9h-3.9c-0.4-3.4-1.1-6.3-1.9-8.6
		c-0.9-2.3-2-4.2-3.4-5.6c-1.4-1.4-3.2-2.4-5.4-3.1c-2.2-0.6-4.8-0.9-7.9-0.9h-9.6v66.2c0,3.9,0.7,6.8,2.2,8.6
		c1.5,1.8,3.9,2.8,7.4,3v3.7h-36.2v-3.7c3.5-0.2,6-1.2,7.4-3c1.4-1.8,2.1-4.7,2.1-8.6V48h-9.6c-3.1,0-5.7,0.3-7.9,0.9
		c-2.2,0.6-4,1.6-5.4,3.1c-1.4,1.4-2.5,3.3-3.4,5.6c-0.8,2.3-1.5,5.2-1.9,8.6h-4c0.2-4.3,0.3-8.6,0.4-12.7s0.3-8.2,0.4-12.2H1005.9z
		"/>
	<path class="st0" d="M1071.9,129.6v-3.7c2.1-0.1,3.8-0.4,5-0.8c1.2-0.5,2.2-1.1,2.9-2.1c0.7-0.9,1.2-2.1,1.4-3.6
		c0.2-1.5,0.4-3.3,0.4-5.4V86.1h-45.4v28.4c0,2,0.1,3.7,0.4,5.1c0.2,1.4,0.7,2.6,1.4,3.4c0.7,0.9,1.6,1.5,2.9,2
		c1.2,0.5,2.9,0.7,4.9,0.8v3.7h-35.6v-3.7c2-0.1,3.6-0.4,4.9-0.8c1.3-0.5,2.3-1.1,2.9-2.1c0.7-0.9,1.1-2.1,1.4-3.6
		c0.2-1.5,0.4-3.3,0.4-5.4V56.3c0-2-0.1-3.7-0.4-5.1c-0.3-1.4-0.8-2.5-1.5-3.4c-0.7-0.9-1.7-1.5-2.9-1.9c-1.2-0.4-2.8-0.7-4.8-0.8
		v-3.8h35.6v3.8c-2,0.2-3.6,0.5-4.9,0.9c-1.2,0.4-2.2,1.1-2.9,1.9c-0.7,0.9-1.1,2-1.4,3.4s-0.4,3.1-0.4,5.1v23.2h45.4V55.8
		c0-1.8-0.1-3.4-0.4-4.8c-0.2-1.3-0.7-2.4-1.4-3.2c-0.7-0.8-1.7-1.4-3-1.8c-1.3-0.4-2.9-0.7-4.9-0.9v-3.8h35.8v3.8
		c-1.9,0.1-3.5,0.3-4.8,0.8c-1.2,0.4-2.2,1-2.9,1.9c-0.7,0.8-1.2,1.9-1.5,3.2c-0.3,1.3-0.4,3-0.4,5v57.5c0,2.2,0.1,4.1,0.3,5.6
		c0.2,1.5,0.6,2.7,1.3,3.7c0.7,1,1.6,1.7,2.9,2.2s3,0.8,5.1,0.9v3.7H1071.9z"/>
	<path class="st0" d="M1189.8,80.4v28.7c0,2.7,0.2,5,0.5,7c0.3,1.9,1,3.5,1.9,4.7c0.9,1.2,2.2,2.1,3.9,2.7c1.7,0.6,3.9,1,6.6,1.1
		v5.1h-48.1v-5.1c2.7-0.1,5-0.5,6.7-1.1c1.8-0.6,3.1-1.6,4-2.8c0.9-1.2,1.5-2.9,1.9-4.8c0.3-2,0.5-4.4,0.5-7.4V83.3v0.5v-54
		c0-2.7-0.2-5-0.5-6.8c-0.3-1.8-1-3.3-2-4.3c-1-1.1-2.3-1.9-4.1-2.4c-1.8-0.5-4-0.8-6.7-0.9V9.7h10.7c0.7,0,1.8,0,3.5,0
		c1.6,0,3.6,0,5.8,0s4.6,0,7.3-0.1c2.7-0.1,5.4-0.1,8.1-0.1c6.2,0,13.1-0.1,20.7-0.2c13.7-0.1,24,2.8,30.9,8.7
		c6.9,5.9,10.4,13.9,10.4,24c-0.2,7.3-2.3,13.7-6.1,19.2c-1.7,2.4-3.9,4.7-6.5,7.1c-2.6,2.3-5.9,4.4-9.8,6.2
		c-3.9,1.8-8.5,3.3-13.8,4.3c-5.3,1.1-11.4,1.6-18.4,1.6H1189.8z M1189.8,72c0.6,0,1.2,0,1.8,0.1c0.6,0.1,1.2,0.1,1.8,0.1
		c5.8,0,10.9-0.9,15.3-2.6c4.4-1.8,8.1-4.1,11.1-7.1c3-3,5.3-6.5,6.8-10.5c1.5-4,2.3-8.4,2.3-13c0-7.4-2.2-13.1-6.5-17.1
		c-4.3-4-10.5-6-18.7-6c-5.1,0-8.7,0.9-10.8,2.6c-2.1,1.8-3.1,4.7-3.1,8.8V72z"/>
	<path class="st0" d="M1327.1,129.6h-69.5v-3.7c2-0.1,3.6-0.4,4.9-0.8c1.3-0.5,2.3-1.1,2.9-2.1c0.7-0.9,1.1-2.1,1.4-3.6
		c0.2-1.5,0.4-3.3,0.4-5.4V56.3c0-2-0.1-3.7-0.4-5.1c-0.3-1.4-0.8-2.5-1.5-3.4c-0.7-0.9-1.7-1.5-2.9-1.9c-1.2-0.4-2.8-0.7-4.8-0.8
		v-3.8h36.1v3.8c-2,0.2-3.6,0.5-4.9,0.9c-1.2,0.4-2.2,1.1-2.9,1.9c-0.7,0.9-1.1,2-1.4,3.4c-0.2,1.4-0.4,3.1-0.4,5.1v58
		c0,2,0.2,3.7,0.6,5c0.4,1.3,1.1,2.4,2.2,3.2c1,0.8,2.5,1.4,4.4,1.7c1.9,0.3,4.4,0.5,7.4,0.5c4.1,0,7.6-0.3,10.6-0.9
		c3-0.6,5.5-1.6,7.6-3c2-1.4,3.7-3.3,4.9-5.6c1.2-2.3,2.2-5.1,2.9-8.6h4.1L1327.1,129.6z"/>
	<path class="st0" d="M1412.3,119.6c0.8,1.3,1.6,2.5,2.6,3.4c1,0.9,2.1,1.6,3.4,2.1c1.3,0.5,3,0.8,5,0.8v3.7H1386v-3.7
		c3.6-0.2,6.1-0.6,7.5-1.2c1.4-0.7,2.1-2.1,2.1-4.2c0-1.1-0.3-2.4-0.9-3.9l-7.1-16.8h-28.8l-6.2,17.6c-0.4,1.1-0.6,2.2-0.6,3.2
		c0,1.9,0.7,3.2,2.1,3.9c1.4,0.7,3.8,1.1,7.1,1.3v3.7H1330v-3.7c2.3-0.2,4.3-0.6,6-1.3c1.7-0.7,3.1-1.7,4.4-2.9
		c1.3-1.2,2.4-2.8,3.4-4.8c1-1.9,2-4.2,3-6.8l26.5-68.8h4.6l32.1,73.5C1410.8,116.7,1411.6,118.3,1412.3,119.6z M1384.8,93.8
		l-12.8-29.1l-11,29.1H1384.8z"/>
	<path class="st0" d="M1518.5,41.4v3.8c-4.1,0.4-6.7,1.5-7.9,3.2c-1.2,1.9-1.9,5-1.9,9.2l-0.6,72h-7.4l-61.5-71.1v12.6
		c0,3.8,0,7.2-0.1,10.4c0,3.2-0.1,6.2-0.1,9v14.2c0,1.9,0,3.7,0,5.3s0,3.1,0.1,4.3c0.2,2.7,0.3,4.5,0.5,5.4c0.8,3.9,3.9,6,9.4,6.1
		v3.7h-27.9v-3.7c1.9-0.1,3.5-0.4,4.9-1c1.2-0.5,2.2-1.2,2.9-2.1c0.8-1,1.2-2.2,1.5-3.8c0.2-0.8,0.3-1.6,0.4-2.5
		c0.1-0.9,0.1-2,0.1-3.1l0.8-58.6v-0.5c0-3.2-0.8-5.5-2.2-6.9c-1.5-1.3-4.1-2.1-7.8-2.2v-3.8h23l55.9,62.8v-1.6
		c0.1-0.4,0.1-1,0.1-1.8c0-7.6,0-14.2-0.1-20c0-5.8-0.1-10.6-0.1-14.6s0-7.2-0.1-9.7c-0.1-2.5-0.2-4.2-0.4-5.2
		c-0.8-3.9-3.9-6-9.4-6.1v-3.8H1518.5z"/>
</g>
</svg>
