<?xml version="1.0" encoding="utf-8"?>
<!-- Generator: Adobe Illustrator 23.0.2, SVG Export Plug-In . SVG Version: 6.00 Build 0)  -->
<svg version="1.1" id="Layer_1" xmlns="http://www.w3.org/2000/svg" xmlns:xlink="http://www.w3.org/1999/xlink" x="0px" y="0px"
	 viewBox="0 0 133.8 43.9" style="enable-background:new 0 0 133.8 43.9;" xml:space="preserve">
<style type="text/css">
	.st0{fill:#005288;}
	.st1{fill:none;}
</style>
<g>
	<g>
		<path class="st0" d="M1.9,21.8C1.9,10.6,11,1.6,22.2,1.6l0,0c11.2,0,20.2,9.1,20.2,20.2l0,0c0,11.2-9.1,20.2-20.2,20.2l0,0v-1.5
			V39c9.5,0,17.2-7.7,17.2-17.2l0,0c0-9.5-7.7-17.2-17.2-17.2l0,0c-9.5,0-17.2,7.7-17.2,17.2l0,0c0,9.5,7.7,17.2,17.2,17.2l0,0v1.5
			V42C11,42,1.9,32.9,1.9,21.8L1.9,21.8z"/>
		<path class="st0" d="M8.3,13.3l3,0l0,10.8c0,0.7,0.4,1.5,1.3,1.5c0.9,0,1.2-0.9,1.2-1.5l0-10.7h3l0,10.4c0,2.3-1,4.4-4.3,4.4
			c-2.7,0-4.2-1.6-4.2-4.5V13.3z"/>
		<path class="st0" d="M25.8,24.5C25.8,24.5,25.8,24.5,25.8,24.5c-0.7-0.7-1.6-1.1-2.7-1.6c-0.1-0.1-1.5-0.6-2-1.2
			c-0.2-0.2-0.3-0.7-0.3-1.1c0-0.4,0.2-0.9,0.2-1c0.1-0.2,0.4-0.5,0.7-0.6c0.2,0,0.4-0.1,0.6-0.1c1.1,0,1.5,0.7,1.5,1.5l0,1.8l2.9,0
			l0-2.2c-0.1-1.7-0.7-3.7-4.2-3.8c-3.6-0.1-4.8,1.7-4.8,4.5c0,1.5,0.7,2.5,1.4,3.2l0,0c0.1,0.1,0.2,0.2,0.3,0.3
			c0.1,0.1,0.3,0.2,0.4,0.2c0,0,0.1,0,0.1,0c0.5,0.3,1.1,0.6,1.7,0.9c0.1,0.1,1.5,0.6,2,1.2c0.2,0.2,0.3,0.7,0.3,1.1
			c0,0.4-0.2,0.9-0.2,1c-0.1,0.2-0.4,0.5-0.7,0.6c-0.2,0-0.4,0.1-0.6,0.1c-1.1,0-1.5-0.7-1.5-1.5V26h-2.9l0,2.2
			c0.1,1.7,0.7,3.7,4.2,3.8c3.6,0.1,4.8-1.7,4.8-4.6C26.9,26,26.3,25.1,25.8,24.5z"/>
		<path class="st0" d="M35.2,20.8C35.2,20.8,35.3,20.8,35.2,20.8c-0.7-0.7-1.6-1.1-2.8-1.7c-0.1-0.1-1.5-0.6-2-1.2
			c-0.2-0.2-0.3-0.7-0.3-1.1c0-0.4,0.2-0.9,0.2-1c0.1-0.2,0.4-0.5,0.7-0.6c0.2,0,0.4-0.1,0.6-0.1c1.1,0,1.5,0.7,1.5,1.5l0,1.8l2.9,0
			l0-2.2c-0.1-1.7-0.7-3.7-4.2-3.8c-3.6-0.1-4.8,1.7-4.8,4.5c0,1.4,0.5,2.3,1.1,2.9c0,0,0,0,0,0c0.2,0.2,0.4,0.4,0.6,0.5
			c0.1,0.1,0.2,0.2,0.4,0.2c0,0,0.1,0,0.1,0c0.5,0.3,1.1,0.6,1.7,0.9c0.1,0.1,1.5,0.6,2,1.2c0.2,0.2,0.3,0.7,0.3,1.1
			c0,0.4-0.2,0.9-0.2,1c-0.1,0.2-0.4,0.5-0.7,0.6c-0.2,0-0.4,0.1-0.6,0.1c-1.1,0-1.5-0.7-1.5-1.5v-1.8h-2.9l0,2.2
			c0.1,1.7,0.7,3.7,4.2,3.8c3.6,0.1,4.8-1.7,4.8-4.6C36.3,22.2,35.8,21.3,35.2,20.8z"/>
	</g>
	<g>
		<path class="st0" d="M63.2,13.5h2.4v9.1c0,2.9-0.9,4.3-4.1,4.3c-3.2,0-4.1-1.4-4.1-4.3v-9.1h2.4v8.9c0,1.2,0.1,2.5,1.7,2.5
			c1.6,0,1.7-1.2,1.7-2.5V13.5z"/>
		<path class="st0" d="M68.5,26.5v-2.3h2.3v2.3H68.5z"/>
		<path class="st0" d="M83,17.5c0-1.2-0.1-2.3-1.4-2.3c-0.8,0-1.3,0.3-1.3,1.2c0,1,0.6,1.4,1.4,1.9c0.8,0.5,2.3,1.5,2.9,2.1
			c0.8,0.8,1.1,1.6,1.1,2.7c0,2.5-1.6,3.7-4,3.7c-2.9,0-4-1.6-4-4v-1h2.4v0.8c-0.1,1.3,0.3,2.2,1.5,2.2c1,0,1.5-0.5,1.5-1.5
			c0-0.8-0.3-1.3-1-1.7c-1.3-1-2.8-1.7-3.8-3c-0.4-0.6-0.6-1.3-0.6-2c0-2.2,1.2-3.4,3.8-3.4c3.9,0,3.8,3,3.8,4.3H83z"/>
		<path class="st0" d="M88.3,26.5v-2.3h2.3v2.3H88.3z"/>
		<path class="st0" d="M102.8,17.5c0-1.2-0.1-2.3-1.4-2.3c-0.8,0-1.3,0.3-1.3,1.2c0,1,0.6,1.4,1.4,1.9c0.8,0.5,2.3,1.5,2.9,2.1
			c0.8,0.8,1.1,1.6,1.1,2.7c0,2.5-1.6,3.7-4,3.7c-2.9,0-4-1.6-4-4v-1h2.4v0.8c-0.1,1.3,0.3,2.2,1.5,2.2c1,0,1.5-0.5,1.5-1.5
			c0-0.8-0.3-1.3-1-1.7c-1.3-1-2.8-1.7-3.8-3c-0.4-0.6-0.6-1.3-0.6-2c0-2.2,1.2-3.4,3.8-3.4c3.9,0,3.8,3,3.8,4.3H102.8z"/>
		<path class="st0" d="M110.7,26.6c-1.3,0.2-3.2,0.3-3.2-1.5v-6.6h-0.9v-1.6h0.9v-2.7h2.3v2.7h1v1.6h-1v6.1c0.1,0.4,0.7,0.4,1,0.3
			V26.6z"/>
		<path class="st0" d="M112,20.1c-0.1-2.3,1.1-3.6,3.3-3.6c3.1,0,3.5,1.6,3.5,4.3v1.3h-4.5v1.4c0,1.3,0.5,1.5,1.2,1.5
			c0.8,0,1.1-0.6,1-1.8h2.3c0.1,2.2-0.8,3.6-3.1,3.6c-2.6,0-3.7-1.2-3.6-4.1V20.1z M116.6,20.4v-0.9c0-1-0.3-1.3-1.2-1.3
			c-1.1,0-1.1,0.9-1.1,1.8v0.4H116.6z"/>
		<path class="st0" d="M120.7,20.1c-0.1-2.3,1.1-3.6,3.3-3.6c3.1,0,3.5,1.6,3.5,4.3v1.3H123v1.4c0,1.3,0.5,1.5,1.2,1.5
			c0.8,0,1.1-0.6,1-1.8h2.3c0.1,2.2-0.8,3.6-3.1,3.6c-2.6,0-3.7-1.2-3.6-4.1V20.1z M125.2,20.4v-0.9c0-1-0.3-1.3-1.2-1.3
			c-1.1,0-1.1,0.9-1.1,1.8v0.4H125.2z"/>
		<path class="st0" d="M129.8,26.5v-13h2.3v13H129.8z"/>
	</g>
</g>
<rect x="15.1" y="-13.9" class="st1" width="15.3" height="15.3"/>
<rect x="-13.6" y="12.9" class="st1" width="15.3" height="15.3"/>
<rect x="11.9" y="42.1" class="st1" width="15.3" height="15.3"/>
<rect x="132.1" y="4.1" class="st1" width="15.3" height="15.3"/>
</svg>
